<svg xmlns="http://www.w3.org/2000/svg" xmlns:xlink="http://www.w3.org/1999/xlink" version="1.1" x="0px" y="0px" width="76.3px" height="76.3px" viewBox="0 0 76.3 76.3" enable-background="new 0 0 76.3 76.3" xml:space="preserve"><g id="Layer_1"><path fill="none" stroke="#FFFFFF" stroke-width="0.79" stroke-miterlimit="10" d="M0 5.8c8.6-2.7 17.3-1.5 25.5 3.4 0.5 0.3 1 0.1 1.2-0.4 1.2-3.5 2.7-6.4 4.4-8.8"/><path fill="none" stroke="#FFFFFF" stroke-width="0.79" stroke-miterlimit="10" d="M0 1.7c7.7-2.1 15.5-1.5 22.9 1.7 0.7 0.3 1.7 0 2-0.8 0.5-0.9 0.9-1.8 1.4-2.7"/><path fill="none" stroke="#FFFFFF" stroke-width="0.79" stroke-miterlimit="10" d="M0 62.5c2.5-11-2.3-30.7 6.7-34 11.7-4.3 23.4 28 35.1 23.8s-0.1-36.5 11.6-40.8c7.6-2.8 15.2 9.9 22.8 17.9"/><path fill="none" stroke="#FFFFFF" stroke-width="0.79" stroke-miterlimit="10" d="M5.9 76.3c6.8-6.9 6.8-18.4 6.8-27.3 0 0 0 0 0 0 0-2.1 1.1-2.5 2.4-0.9 0 0 0 0 0 0 7.2 8.6 17.1 20.4 30.7 15.4 13.7-5 13.6-20.3 13.6-31.6 0 0 0 0 0 0 0-2.1 1.1-2.5 2.4-0.9 0 0 0 0 0 0 3.9 4.7 8.6 10.3 14.3 13.7"/><path fill="none" stroke="#FFFFFF" stroke-width="0.79" stroke-miterlimit="10" d="M76.3 17.4C69.6 9.4 61.4 0.3 50.8 4.1c-11.1 4-11 17.2-11 27.8 0 2.3 0 6.5-0.3 9.6 -0.2 1.8-1.4 2.2-2.7 1 -2.3-2.2-5-5.4-6.4-7.2C23.5 27.3 15.1 17.1 4 21.2c-1.5 0.6-2.8 1.3-4 2.2"/><path fill="none" stroke="#FFFFFF" stroke-width="0.79" stroke-miterlimit="10" d="M0 29.2c1.2-2 2.9-3.5 5.3-4.3 8.4-3.1 15.6 5.5 21.9 13.1 4.4 5.3 9.9 11.9 13.2 10.7s3.2-9.8 3.2-16.7c0-9.9 0-21 8.4-24.1s15.6 5.5 21.9 13.1c0.7 0.9 1.5 1.7 2.2 2.6"/><path fill="none" stroke="#FFFFFF" stroke-width="0.79" stroke-miterlimit="10" d="M61 0c6 1.8 11 6.5 15.3 11.3"/><path fill="none" stroke="#FFFFFF" stroke-width="0.79" stroke-miterlimit="10" d="M0 18.6c0.8-0.4 1.7-0.8 2.6-1.2 13.7-5 23.5 6.8 30.7 15.4 0.3 0.4 0.7 0.8 1 1.3 0.8 0.9 1.4 0.7 1.4-0.5 0-0.6 0-1.2 0-1.6 0-11.2 0-26.6 13.6-31.6 0.4-0.1 0.8-0.3 1.2-0.4"/><path fill="none" stroke="#FFFFFF" stroke-width="0.79" stroke-miterlimit="10" d="M36.1 0c-2.9 3.3-5.5 8.1-7 15.2 -0.1 0.7-0.7 0.9-1.3 0.5C21.7 10.8 12.1 5.6 0 10"/><path fill="none" stroke="#FFFFFF" stroke-width="0.79" stroke-miterlimit="10" d="M69.8 0c2.4 1.6 4.5 3.6 6.5 5.6"/><path fill="none" stroke="#FFFFFF" stroke-width="0.79" stroke-miterlimit="10" d="M0 14.2c0.4-0.2 0.8-0.3 1.3-0.5 12.6-4.6 22.2 2.5 29.4 10.1 0.7 0.7 1.3 0.5 1.4-0.5 0.5-8.4 2.5-17.7 9.9-23.3"/><path fill="none" stroke="#FFFFFF" stroke-width="0.79" stroke-miterlimit="10" d="M76.2 49.2c-4.4-2.2-8.3-5.6-11.6-9.1 -0.7-0.7-1.3-0.5-1.4 0.5 -0.6 10.4-3.5 22-16 26.6S25 64.7 17.9 57.1c-0.7-0.7-1.3-0.5-1.4 0.5 -0.4 6.4-1.6 13.2-5.4 18.6"/><path fill="none" stroke="#FFFFFF" stroke-width="0.79" stroke-miterlimit="10" d="M76.3 34.9c-2.9-2.6-5.7-5.9-8.3-9 -4.4-5.3-9.9-11.9-13.2-10.7S51.6 25 51.6 32c0 9.9 0 21-8.4 24.1S27.6 50.6 21.2 43c-4.4-5.3-9.9-11.9-13.2-10.7C4.8 33.5 4.8 42.1 4.8 49c0 8.2 0 17.3-4.8 21.9"/><path fill="none" stroke="#FFFFFF" stroke-width="0.79" stroke-miterlimit="10" d="M0 75.8c8.8-4.9 8.8-17 8.8-26.8 0-2.3 0-6.5 0.3-9.6 0.2-1.8 1.4-2.2 2.7-1 2.3 2.2 5 5.4 6.4 7.2 6.8 8.1 15.3 18.3 26.3 14.2s11-17.2 11-27.8c0-2.3 0-6.5 0.3-9.6 0.2-1.8 1.4-2.2 2.7-1 2.3 2.2 5 5.4 6.4 7.2 3.3 4 7.1 8.4 11.3 11.5"/><path fill="none" stroke="#FFFFFF" stroke-width="0.79" stroke-miterlimit="10" d="M76.3 53.5c-3.4-1.4-6.4-3.4-8.8-5.3 -0.6-0.5-1.1-0.2-1.3 0.5 -3.5 17.1-13.9 20.9-17.6 22.2 -12.1 4.4-21.8-0.7-27.9-5.7 -0.6-0.5-1.1-0.2-1.3 0.5 -0.9 4.3-2.2 7.7-3.7 10.5"/><path fill="none" stroke="#FFFFFF" stroke-width="0.79" stroke-miterlimit="10" d="M74.2 76.3c0.6-0.5 1.3-0.9 2.1-1.2"/><path fill="none" stroke="#FFFFFF" stroke-width="0.79" stroke-miterlimit="10" d="M35.5 76.3c-4.2-0.6-8.4-2.1-12.5-4.6 -0.5-0.3-1-0.1-1.2 0.4 -0.5 1.5-1.1 2.9-1.7 4.1"/><path fill="none" stroke="#FFFFFF" stroke-width="0.79" stroke-miterlimit="10" d="M76.3 57.8c-2.2-0.8-4.4-1.8-6.5-3.1 -0.5-0.3-1-0.1-1.2 0.4 -4.9 14.5-15.1 18.2-18.7 19.5 -2.2 0.8-4.3 1.3-6.5 1.6"/><path fill="none" stroke="#FFFFFF" stroke-width="0.79" stroke-miterlimit="10" d="M56.1 76.3c4.4-2.3 10.2-6.6 14.2-15 0.4-0.7 1.3-1.1 2-0.8 1.3 0.6 2.6 1 3.9 1.4"/><path fill="none" stroke="#FFFFFF" stroke-width="0.79" stroke-miterlimit="10" d="M76.3 66c-0.3-0.1-0.7-0.2-1-0.3 -1.4-0.4-2.9 0.1-3.6 1.4 -2.5 4-5.4 7-8.2 9.2"/><path fill="none" stroke="#FFFFFF" stroke-width="0.79" stroke-miterlimit="10" d="M69.3 76.3c1-1 2.1-2.2 3.1-3.4 1-1.2 2.4-2 3.9-2.3"/></g><g id="Layer_2"/></svg>