<?xml version="1.0" encoding="utf-8"?>
<!-- Generator: Adobe Illustrator 18.1.0, SVG Export Plug-In . SVG Version: 6.00 Build 0)  -->
<svg version="1.1" id="Layer_1" xmlns="http://www.w3.org/2000/svg" xmlns:xlink="http://www.w3.org/1999/xlink" x="0px" y="0px"
	 width="220.5px" height="124.2px" viewBox="0 0 220.5 124.2" enable-background="new 0 0 220.5 124.2" xml:space="preserve">
<path fill="none" stroke="#000000" stroke-width="0.5" stroke-miterlimit="10" d="M63,52.4"/>
<path fill="none" stroke="#000000" stroke-width="0.5" stroke-miterlimit="10" d="M220.5,33.8c-2.4,0-9.3,0-15.3,7.6
	c-0.2,0.3-0.6,0.3-0.8,0c-4-5-9.3-7.6-15.4-7.6c-2.4,0-9.3,0-15.3,7.6c-0.2,0.3-0.6,0.3-0.8,0c-4-5-9.3-7.6-15.4-7.6
	c-2.4,0-9.3,0-15.3,7.6c-0.2,0.3-0.6,0.3-0.8,0c-4-5-9.3-7.6-15.4-7.6c-2.4,0-9.3,0-15.3,7.6c-0.2,0.3-0.6,0.3-0.8,0
	c-4-5-9.3-7.6-15.4-7.6c-2.4,0-9.3,0-15.3,7.6c-0.2,0.3-0.6,0.3-0.8,0c-4-5-9.3-7.6-15.4-7.6c-2.4,0-9.3,0-15.3,7.6
	c-0.2,0.3-0.6,0.3-0.8,0c-4-5-9.3-7.6-15.4-7.6c-2.4,0-9.3,0-15.3,7.6c-0.2,0.3-0.6,0.3-0.8,0c-4-5-9.3-7.6-15.4-7.6"/>
<path fill="none" stroke="#000000" stroke-width="0.5" stroke-miterlimit="10" d="M0,36.2c8.1,0,12.8,5.2,15.4,9.4
	c0.2,0.4,0.6,0.4,0.9,0c5.7-9.4,12.8-9.4,15.3-9.4c8.1,0,12.8,5.2,15.4,9.4c0.2,0.4,0.6,0.4,0.9,0c5.7-9.4,12.8-9.4,15.3-9.4
	c8.1,0,12.8,5.2,15.4,9.4c0.2,0.4,0.6,0.4,0.9,0c5.7-9.4,12.8-9.4,15.3-9.4c8.1,0,12.8,5.2,15.4,9.4c0.2,0.4,0.6,0.4,0.9,0
	c5.7-9.4,12.8-9.4,15.3-9.4c8.1,0,12.8,5.2,15.4,9.4c0.2,0.4,0.6,0.4,0.9,0c5.7-9.4,12.8-9.4,15.3-9.4c8.1,0,12.8,5.2,15.4,9.4
	c0.2,0.4,0.6,0.4,0.9,0c5.7-9.4,12.8-9.4,15.3-9.4c8.1,0,12.8,5.2,15.4,9.4c0.2,0.4,0.6,0.4,0.9,0c5.7-9.4,12.8-9.4,15.3-9.4"/>
<path fill="none" stroke="#000000" stroke-width="0.5" stroke-miterlimit="10" d="M220.5,26.2c-2.1,0-7.9,0-14.2,4
	c-0.9,0.6-2.3,0.6-3.2,0c-4.2-2.6-9.1-4-14.2-4c-2.1,0-7.9,0-14.2,4c-0.9,0.6-2.3,0.6-3.2,0c-4.2-2.6-9.1-4-14.2-4
	c-2.1,0-7.9,0-14.2,4c-0.9,0.6-2.3,0.6-3.2,0c-4.2-2.6-9.1-4-14.2-4c-2.1,0-7.9,0-14.2,4c-0.9,0.6-2.3,0.6-3.2,0
	c-4.2-2.6-9.1-4-14.2-4c-2.1,0-7.9,0-14.2,4c-0.9,0.6-2.3,0.6-3.2,0c-4.2-2.6-9.1-4-14.2-4c-2.1,0-7.9,0-14.2,4
	c-0.9,0.6-2.3,0.6-3.2,0c-4.2-2.6-9.1-4-14.2-4c-2.1,0-7.9,0-14.2,4c-0.9,0.6-2.3,0.6-3.2,0c-4.2-2.6-9.1-4-14.2-4"/>
<path fill="none" stroke="#000000" stroke-width="0.5" stroke-miterlimit="10" d="M0,28.8c5.5,0,10.6,1.7,14.8,5
	c0.5,0.4,1.3,0.4,1.8,0c6.3-5,12.6-5,14.8-5c5.5,0,10.6,1.7,14.8,5c0.5,0.4,1.3,0.4,1.8,0c6.3-5,12.6-5,14.8-5
	c5.5,0,10.6,1.7,14.8,5c0.5,0.4,1.3,0.4,1.8,0c6.3-5,12.6-5,14.8-5c5.5,0,10.6,1.7,14.8,5c0.5,0.4,1.3,0.4,1.8,0
	c6.3-5,12.6-5,14.8-5c5.5,0,10.6,1.7,14.8,5c0.5,0.4,1.3,0.4,1.8,0c6.3-5,12.6-5,14.8-5c5.5,0,10.6,1.7,14.8,5
	c0.5,0.4,1.3,0.4,1.8,0c6.3-5,12.6-5,14.8-5c5.5,0,10.6,1.7,14.8,5c0.5,0.4,1.3,0.4,1.8,0c6.3-5,12.6-5,14.8-5"/>
<path fill="none" stroke="#000000" stroke-width="0.5" stroke-miterlimit="10" d="M220.5,31.2c-2.3,0-8.8,0-15,6.1
	c-0.4,0.4-1,0.4-1.4,0c-4.2-4-9.3-6.1-15.1-6.1c-2.3,0-8.8,0-15,6.1c-0.4,0.4-1,0.4-1.4,0c-4.2-4-9.3-6.1-15.1-6.1
	c-2.3,0-8.8,0-15,6.1c-0.4,0.4-1,0.4-1.4,0c-4.2-4-9.3-6.1-15.1-6.1c-2.3,0-8.8,0-15,6.1c-0.4,0.4-1,0.4-1.4,0
	c-4.2-4-9.3-6.1-15.1-6.1c-2.3,0-8.8,0-15,6.1c-0.4,0.4-1,0.4-1.4,0c-4.2-4-9.3-6.1-15.1-6.1c-2.3,0-8.8,0-15,6.1
	c-0.4,0.4-1,0.4-1.4,0c-4.2-4-9.3-6.1-15.1-6.1c-2.3,0-8.8,0-15,6.1c-0.4,0.4-1,0.4-1.4,0c-4.2-4-9.3-6.1-15.1-6.1"/>
<path fill="none" stroke="#000000" stroke-width="0.5" stroke-miterlimit="10" d="M220.5,23.8c-2,0-7.7,0-13.7,3.7
	c-1.1,0.7-3,0.7-4.1,0c-4.1-2.4-8.7-3.7-13.6-3.7c-2,0-7.7,0-13.7,3.7c-1.1,0.7-3,0.7-4.1,0c-4.1-2.4-8.7-3.7-13.6-3.7
	c-2,0-7.7,0-13.7,3.7c-1.1,0.7-3,0.7-4.1,0c-4.1-2.4-8.7-3.7-13.6-3.7c-2,0-7.7,0-13.7,3.7c-1.1,0.7-3,0.7-4.1,0
	c-4.1-2.4-8.7-3.7-13.6-3.7c-2,0-7.7,0-13.7,3.7c-1.1,0.7-3,0.7-4.1,0c-4.1-2.4-8.7-3.7-13.6-3.7c-2,0-7.7,0-13.7,3.7
	c-1.1,0.7-3,0.7-4.1,0c-4.1-2.4-8.7-3.7-13.6-3.7c-2,0-7.7,0-13.7,3.7c-1.1,0.7-3,0.7-4.1,0C9.5,25,4.9,23.8,0,23.8"/>
<path fill="none" stroke="#000000" stroke-width="0.5" stroke-miterlimit="10" d="M220.5,111.2c-3.1,0-6.3,0.4-9.3,1.2
	c-2.9,0.7-5.3,0.7-6.4,0.7c-2.2,0-4.4-0.3-6.5-0.8c-6.1-1.5-12.5-1.3-18.6,0.1c-2.9,0.7-5.3,0.7-6.4,0.7c-2.2,0-4.4-0.3-6.5-0.8
	c-6.1-1.5-12.5-1.3-18.6,0.1c-2.9,0.7-5.3,0.7-6.4,0.7c-2.2,0-4.4-0.3-6.5-0.8c-6.1-1.5-12.5-1.3-18.6,0.1c-2.9,0.7-5.3,0.7-6.4,0.7
	c-2.2,0-4.4-0.3-6.5-0.8c-6.1-1.5-12.5-1.3-18.6,0.1c-2.9,0.7-5.3,0.7-6.4,0.7c-2.2,0-4.4-0.3-6.5-0.8c-6.1-1.5-12.5-1.3-18.6,0.1
	c-2.9,0.7-5.3,0.7-6.4,0.7c-2.2,0-4.4-0.3-6.5-0.8c-6.1-1.5-12.5-1.3-18.6,0.1c-2.9,0.7-5.3,0.7-6.4,0.7c-2.2,0-4.4-0.3-6.5-0.8
	c-3-0.7-6.1-1.1-9.2-1.1"/>
<path fill="none" stroke="#000000" stroke-width="0.5" stroke-miterlimit="10" d="M0,114.1c3.7,0,7.4,0.3,11,1
	c1.5,0.3,3.1,0.4,4.7,0.4c1,0,2.9,0,5.2-0.4c7.1-1.3,14.4-1.2,21.6,0c1.5,0.3,3.1,0.4,4.7,0.4c1,0,2.9,0,5.2-0.4
	c7.1-1.3,14.4-1.2,21.6,0c1.5,0.3,3.1,0.4,4.7,0.4c1,0,2.9,0,5.2-0.4c7.1-1.3,14.4-1.2,21.6,0c1.5,0.3,3.1,0.4,4.7,0.4
	c1,0,2.9,0,5.2-0.4c7.1-1.3,14.4-1.2,21.6,0c1.5,0.3,3.1,0.4,4.7,0.4c1,0,2.9,0,5.2-0.4c7.1-1.3,14.4-1.2,21.6,0
	c1.5,0.3,3.1,0.4,4.7,0.4c1,0,2.9,0,5.2-0.4c7.1-1.3,14.4-1.2,21.6,0c1.5,0.3,3.1,0.4,4.7,0.4c1,0,2.9,0,5.2-0.4
	c3.5-0.6,7-1,10.5-0.9"/>
<path fill="none" stroke="#000000" stroke-width="0.5" stroke-miterlimit="10" d="M220.5,108.1c-2.6,0-5.2,0.5-7.7,1.2
	c-3.7,1.1-6.7,1.1-8.1,1.1c-2.9,0-5.6-0.4-8.3-1.3c-4.9-1.6-10.2-1.4-15.2,0.1c-3.7,1.1-6.7,1.1-8.1,1.1c-2.9,0-5.6-0.4-8.3-1.3
	c-4.9-1.6-10.2-1.4-15.2,0.1c-3.7,1.1-6.7,1.1-8.1,1.1c-2.9,0-5.6-0.4-8.3-1.3c-4.9-1.6-10.2-1.4-15.2,0.1c-3.7,1.1-6.7,1.1-8.1,1.1
	c-2.9,0-5.6-0.4-8.3-1.3c-4.9-1.6-10.2-1.4-15.2,0.1c-3.7,1.1-6.7,1.1-8.1,1.1c-2.9,0-5.6-0.4-8.3-1.3c-4.9-1.6-10.2-1.4-15.2,0.1
	c-3.7,1.1-6.7,1.1-8.1,1.1c-2.9,0-5.6-0.4-8.3-1.3c-4.9-1.6-10.2-1.4-15.2,0.1c-3.7,1.1-6.7,1.1-8.1,1.1c-2.9,0-5.6-0.4-8.3-1.3
	c-2.4-0.8-5-1.1-7.5-1.1"/>
<path fill="none" stroke="#000000" stroke-width="0.5" stroke-miterlimit="10" d="M220.5,117.1c-4.1,0-8.2,0.3-12.3,0.7
	c-1.5,0.2-2.7,0.2-3.4,0.2c-1.1,0-2.2-0.1-3.3-0.2c-8.2-1-16.6-0.9-24.8,0c-1.5,0.2-2.7,0.2-3.4,0.2c-1.1,0-2.2-0.1-3.3-0.2
	c-8.2-1-16.6-0.9-24.8,0c-1.5,0.2-2.7,0.2-3.4,0.2c-1.1,0-2.2-0.1-3.3-0.2c-8.2-1-16.6-0.9-24.8,0c-1.5,0.2-2.7,0.2-3.4,0.2
	c-1.1,0-2.2-0.1-3.3-0.2c-8.2-1-16.6-0.9-24.8,0c-1.5,0.2-2.7,0.2-3.4,0.2c-1.1,0-2.2-0.1-3.3-0.2c-8.2-1-16.6-0.9-24.8,0
	c-1.5,0.2-2.7,0.2-3.4,0.2c-1.1,0-2.2-0.1-3.3-0.2c-8.2-1-16.6-0.9-24.8,0c-1.5,0.2-2.7,0.2-3.4,0.2c-1.1,0-2.2-0.1-3.3-0.2
	c-4.2-0.5-8.3-0.7-12.5-0.7"/>
<path fill="none" stroke="#000000" stroke-width="0.5" stroke-miterlimit="10" d="M0,120c4.2,0,8.3,0.1,12.5,0.4
	c1.1,0.1,2.2,0.1,3.3,0.1c0.7,0,1.9,0,3.4-0.1c8.2-0.5,16.6-0.5,24.8,0c1.1,0.1,2.2,0.1,3.3,0.1c0.7,0,1.9,0,3.4-0.1
	c8.2-0.5,16.6-0.5,24.8,0c1.1,0.1,2.2,0.1,3.3,0.1c0.7,0,1.9,0,3.4-0.1c8.2-0.5,16.6-0.5,24.8,0c1.1,0.1,2.2,0.1,3.3,0.1
	c0.7,0,1.9,0,3.4-0.1c8.2-0.5,16.6-0.5,24.8,0c1.1,0.1,2.2,0.1,3.3,0.1c0.7,0,1.9,0,3.4-0.1c8.2-0.5,16.6-0.5,24.8,0
	c1.1,0.1,2.2,0.1,3.3,0.1c0.7,0,1.9,0,3.4-0.1c8.2-0.5,16.6-0.5,24.8,0c1.1,0.1,2.2,0.1,3.3,0.1c0.7,0,1.9,0,3.4-0.1
	c4.1-0.2,8.2-0.4,12.3-0.4"/>
<path fill="none" stroke="#000000" stroke-width="0.5" stroke-miterlimit="10" d="M0,122.9c4.2,0,8.3,0,12.5,0.1c1.1,0,2.2,0,3.3,0
	c0.7,0,1.9,0,3.4,0c8.2-0.1,16.6-0.1,24.8,0c1.1,0,2.2,0,3.3,0c0.7,0,1.9,0,3.4,0c8.2-0.1,16.6-0.1,24.8,0c1.1,0,2.2,0,3.3,0
	c0.7,0,1.9,0,3.4,0c8.2-0.1,16.6-0.1,24.8,0c1.1,0,2.2,0,3.3,0c0.7,0,1.9,0,3.4,0c8.2-0.1,16.6-0.1,24.8,0c1.1,0,2.2,0,3.3,0
	c0.7,0,1.9,0,3.4,0c8.2-0.1,16.6-0.1,24.8,0c1.1,0,2.2,0,3.3,0c0.7,0,1.9,0,3.4,0c8.2-0.1,16.6-0.1,24.8,0c1.1,0,2.2,0,3.3,0
	c0.7,0,1.9,0,3.4,0c4.1-0.1,8.2-0.1,12.3-0.1"/>
<path fill="none" stroke="#000000" stroke-width="0.5" stroke-miterlimit="10" d="M220.5,6.2c-1.4,0-4.4,0-8.1,1.1
	c-4.4,1.3-11.5,1.2-15.9-0.1c-2.4-0.7-5-1.1-7.6-1.1c-1.4,0-4.4,0-8.1,1.1c-4.4,1.3-11.5,1.2-15.9-0.1c-2.4-0.7-5-1.1-7.6-1.1
	c-1.4,0-4.4,0-8.1,1.1c-4.4,1.3-11.5,1.2-15.9-0.1c-2.4-0.7-5-1.1-7.6-1.1c-1.4,0-4.4,0-8.1,1.1c-4.4,1.3-11.5,1.2-15.9-0.1
	c-2.4-0.7-5-1.1-7.6-1.1c-1.4,0-4.4,0-8.1,1.1C82.1,8.7,75,8.6,70.6,7.3c-2.4-0.7-5-1.1-7.6-1.1c-1.4,0-4.4,0-8.1,1.1
	c-4.4,1.3-11.5,1.2-15.9-0.1c-2.4-0.7-5-1.1-7.6-1.1c-1.4,0-4.4,0-8.1,1.1C19.1,8.7,12,8.6,7.6,7.3C5.2,6.6,2.6,6.2,0,6.2"/>
<path fill="none" stroke="#000000" stroke-width="0.5" stroke-miterlimit="10" d="M0,8.8c3.2,0,6.3,0.5,9.2,1.6
	c3.6,1.3,9.5,1.2,13.1-0.1c4.2-1.5,7.7-1.5,9.2-1.5c3.2,0,6.3,0.5,9.2,1.6c3.6,1.3,9.5,1.2,13.1-0.1C58,8.8,61.5,8.8,63,8.8
	c3.2,0,6.3,0.5,9.2,1.6c3.6,1.3,9.5,1.2,13.1-0.1c4.2-1.5,7.7-1.5,9.2-1.5c3.2,0,6.3,0.5,9.2,1.6c3.6,1.3,9.5,1.2,13.1-0.1
	c4.2-1.5,7.7-1.5,9.2-1.5c3.2,0,6.3,0.5,9.2,1.6c3.6,1.3,9.5,1.2,13.1-0.1c4.2-1.5,7.7-1.5,9.2-1.5c3.2,0,6.3,0.5,9.2,1.6
	c3.6,1.3,9.5,1.2,13.1-0.1c4.2-1.5,7.7-1.5,9.2-1.5c3.2,0,6.3,0.5,9.2,1.6c3.6,1.3,9.5,1.2,13.1-0.1c4.2-1.5,7.7-1.5,9.2-1.5"/>
<path fill="none" stroke="#000000" stroke-width="0.5" stroke-miterlimit="10" d="M220.5,21.2c-2,0-7.3,0-13.1,3.3
	c-1.5,0.8-3.9,0.8-5.4,0c-3.9-2.2-8.4-3.4-13-3.4c-2,0-7.3,0-13.1,3.3c-1.5,0.8-3.9,0.8-5.4,0c-3.9-2.2-8.4-3.4-13-3.4
	c-2,0-7.3,0-13.1,3.3c-1.5,0.8-3.9,0.8-5.4,0c-3.9-2.2-8.4-3.4-13-3.4c-2,0-7.3,0-13.1,3.3c-1.5,0.8-3.9,0.8-5.4,0
	c-3.9-2.2-8.4-3.4-13-3.4c-2,0-7.3,0-13.1,3.3c-1.5,0.8-3.9,0.8-5.4,0c-3.9-2.2-8.4-3.4-13-3.4c-2,0-7.3,0-13.1,3.3
	c-1.5,0.8-3.9,0.8-5.4,0c-3.9-2.2-8.4-3.4-13-3.4c-2,0-7.3,0-13.1,3.3c-1.5,0.8-3.9,0.8-5.4,0c-3.9-2.2-8.4-3.4-13-3.4"/>
<path fill="none" stroke="#000000" stroke-width="0.5" stroke-miterlimit="10" d="M220.5,3.8c-1.1,0-3.4,0-6.2,0.6
	c-5.2,1.2-13.8,1.3-19,0.1c-2-0.5-4.1-0.7-6.3-0.7c-1.1,0-3.4,0-6.2,0.6c-5.2,1.2-13.8,1.3-19,0.1c-2-0.5-4.1-0.7-6.3-0.7
	c-1.1,0-3.4,0-6.2,0.6c-5.2,1.2-13.8,1.3-19,0.1c-2-0.5-4.1-0.7-6.3-0.7c-1.1,0-3.4,0-6.2,0.6c-5.2,1.2-13.8,1.3-19,0.1
	c-2-0.5-4.1-0.7-6.3-0.7c-1.1,0-3.4,0-6.2,0.6c-5.2,1.2-13.8,1.3-19,0.1c-2-0.5-4.1-0.7-6.3-0.7c-1.1,0-3.4,0-6.2,0.6
	c-5.2,1.2-13.8,1.3-19,0.1c-2-0.5-4.1-0.7-6.3-0.7c-1.1,0-3.4,0-6.2,0.6c-5.2,1.2-13.8,1.3-19,0.1C4.3,4,2.2,3.8,0,3.8"/>
<path fill="none" stroke="#000000" stroke-width="0.5" stroke-miterlimit="10" d="M220.5,1.3c-1.1,0-3.4,0-6.2,0.3
	c-5.2,0.6-13.8,0.7-19,0c-2-0.2-4.1-0.4-6.3-0.4c-1.1,0-3.4,0-6.2,0.3c-5.2,0.6-13.8,0.7-19,0c-2-0.2-4.1-0.4-6.3-0.4
	c-1.1,0-3.4,0-6.2,0.3c-5.2,0.6-13.8,0.7-19,0c-2-0.2-4.1-0.4-6.3-0.4c-1.1,0-3.4,0-6.2,0.3c-5.2,0.6-13.8,0.7-19,0
	c-2-0.2-4.1-0.4-6.3-0.4c-1.1,0-3.4,0-6.2,0.3c-5.2,0.6-13.8,0.7-19,0c-2-0.2-4.1-0.4-6.3-0.4c-1.1,0-3.4,0-6.2,0.3
	c-5.2,0.6-13.8,0.7-19,0c-2-0.2-4.1-0.4-6.3-0.4c-1.1,0-3.4,0-6.2,0.3c-5.2,0.6-13.8,0.7-19,0C4.3,1.4,2.2,1.3,0,1.3"/>
<path fill="none" stroke="#000000" stroke-width="0.5" stroke-miterlimit="10" d="M0,11.2c3.5,0,6.8,0.6,9.9,1.9
	c3.1,1.3,8.4,1.2,11.5,0c4.6-1.9,8.5-1.9,10.1-1.9c3.5,0,6.8,0.6,9.9,1.9c3.1,1.3,8.4,1.2,11.5,0c4.6-1.9,8.5-1.9,10.1-1.9
	c3.5,0,6.8,0.6,9.9,1.9c3.1,1.3,8.4,1.2,11.5,0c4.6-1.9,8.5-1.9,10.1-1.9c3.5,0,6.8,0.6,9.9,1.9c3.1,1.3,8.4,1.2,11.5,0
	c4.6-1.9,8.5-1.9,10.1-1.9c3.5,0,6.8,0.6,9.9,1.9c3.1,1.3,8.4,1.2,11.5,0c4.6-1.9,8.5-1.9,10.1-1.9c3.5,0,6.8,0.6,9.9,1.9
	c3.1,1.3,8.4,1.2,11.5,0c4.6-1.9,8.5-1.9,10.1-1.9c3.5,0,6.8,0.6,9.9,1.9c3.1,1.3,8.4,1.2,11.5,0c4.6-1.9,8.5-1.9,10.1-1.9"/>
<path fill="none" stroke="#000000" stroke-width="0.5" stroke-miterlimit="10" d="M220.5,18.8c-1.9,0-6.9,0-12.6,3
	c-1.8,1-4.7,1-6.4,0c-3.8-2-8.1-3.1-12.5-3.1c-1.9,0-6.9,0-12.6,3c-1.8,1-4.7,1-6.4,0c-3.8-2-8.1-3.1-12.5-3.1c-1.9,0-6.9,0-12.6,3
	c-1.8,1-4.7,1-6.4,0c-3.8-2-8.1-3.1-12.5-3.1c-1.9,0-6.9,0-12.6,3c-1.8,1-4.7,1-6.4,0c-3.8-2-8.1-3.1-12.5-3.1c-1.9,0-6.9,0-12.6,3
	c-1.8,1-4.7,1-6.4,0c-3.8-2-8.1-3.1-12.5-3.1c-1.9,0-6.9,0-12.6,3c-1.8,1-4.7,1-6.4,0c-3.8-2-8.1-3.1-12.5-3.1c-1.9,0-6.9,0-12.6,3
	c-1.8,1-4.7,1-6.4,0c-3.8-2-8.1-3.1-12.5-3.1"/>
<path fill="none" stroke="#000000" stroke-width="0.5" stroke-miterlimit="10" d="M0,13.8c3.8,0,7.5,0.8,10.9,2.3
	c2.7,1.2,7.1,1.1,9.8-0.1c4.9-2.2,9.1-2.2,10.8-2.2c3.8,0,7.5,0.8,10.9,2.3c2.7,1.2,7.1,1.1,9.8-0.1c4.9-2.2,9.1-2.2,10.8-2.2
	c3.8,0,7.5,0.8,10.9,2.3c2.7,1.2,7.1,1.1,9.8-0.1c4.9-2.2,9.1-2.2,10.8-2.2c3.8,0,7.5,0.8,10.9,2.3c2.7,1.2,7.1,1.1,9.8-0.1
	c4.9-2.2,9.1-2.2,10.8-2.2c3.8,0,7.5,0.8,10.9,2.3c2.7,1.2,7.1,1.1,9.8-0.1c4.9-2.2,9.1-2.2,10.8-2.2c3.8,0,7.5,0.8,10.9,2.3
	c2.7,1.2,7.1,1.1,9.8-0.1c4.9-2.2,9.1-2.2,10.8-2.2c3.8,0,7.5,0.8,10.9,2.3c2.7,1.2,7.1,1.1,9.8-0.1c4.9-2.2,9.1-2.2,10.8-2.2"/>
<path fill="none" stroke="#000000" stroke-width="0.5" stroke-miterlimit="10" d="M220.5,16.2c-1.8,0-6.5,0-11.7,2.6
	c-2.2,1.1-5.8,1.2-8,0.1c-3.6-1.8-7.6-2.7-11.7-2.7c-1.8,0-6.5,0-11.7,2.6c-2.2,1.1-5.8,1.2-8,0.1c-3.6-1.8-7.6-2.7-11.7-2.7
	c-1.8,0-6.5,0-11.7,2.6c-2.2,1.1-5.8,1.2-8,0.1c-3.6-1.8-7.6-2.7-11.7-2.7c-1.8,0-6.5,0-11.7,2.6c-2.2,1.1-5.8,1.2-8,0.1
	c-3.6-1.8-7.6-2.7-11.7-2.7c-1.8,0-6.5,0-11.7,2.6c-2.2,1.1-5.8,1.2-8,0.1c-3.6-1.8-7.6-2.7-11.7-2.7c-1.8,0-6.5,0-11.7,2.6
	c-2.2,1.1-5.8,1.2-8,0.1c-3.6-1.8-7.6-2.7-11.7-2.7c-1.8,0-6.5,0-11.7,2.6c-2.2,1.1-5.8,1.2-8,0.1C8.1,17.2,4.2,16.2,0,16.2"/>
<path fill="none" stroke="#000000" stroke-width="0.5" stroke-miterlimit="10" d="M220.5,48.8c-7.9,0-7.9,21.7-15.7,21.7
	c-7.9,0-7.9-21.8-15.8-21.8s-7.9,21.8-15.8,21.8s-7.9-21.8-15.8-21.8s-7.9,21.8-15.8,21.8s-7.9-21.8-15.8-21.8s-7.9,21.8-15.8,21.8
	s-7.9-21.8-15.8-21.8s-7.9,21.8-15.8,21.8S70.9,48.8,63,48.8s-7.9,21.8-15.8,21.8s-7.9-21.8-15.8-21.8s-7.9,21.8-15.8,21.8
	S7.9,48.8,0,48.8"/>
<path fill="none" stroke="#000000" stroke-width="0.5" stroke-miterlimit="10" d="M0,51.2c2.2,0,4,5.1,5.5,9.2
	C7.6,66.3,10.1,73,15.8,73s8.1-6.7,10.2-12.5c1.5-4.1,3.3-9.2,5.5-9.2s4,5.1,5.5,9.2C39.1,66.3,41.6,73,47.2,73s8.1-6.7,10.2-12.5
	c1.5-4.1,3.3-9.2,5.5-9.2s4,5.1,5.5,9.2C70.6,66.3,73.1,73,78.8,73s8.1-6.7,10.2-12.5c1.5-4.1,3.3-9.2,5.5-9.2s4,5.1,5.5,9.2
	c2.1,5.9,4.5,12.5,10.2,12.5s8.1-6.7,10.2-12.5c1.5-4.1,3.3-9.2,5.5-9.2s4,5.1,5.5,9.2c2.1,5.9,4.5,12.5,10.2,12.5
	s8.1-6.7,10.2-12.5c1.5-4.1,3.3-9.2,5.5-9.2s4,5.1,5.5,9.2c2.1,5.9,4.5,12.5,10.2,12.5s8.1-6.7,10.2-12.5c1.5-4.1,3.3-9.2,5.5-9.2
	s4,5.1,5.5,9.2c2.1,5.9,4.5,12.5,10.2,12.5s8.1-6.7,10.2-12.5c1.5-4.1,3.3-9.2,5.5-9.2"/>
<path fill="none" stroke="#000000" stroke-width="0.5" stroke-miterlimit="10" d="M220.5,105.3c-2.2,0-4.4,0.4-6.6,1.2
	c-4.2,1.5-7.7,1.5-9.2,1.5c-3.2,0-6.3-0.5-9.2-1.6c-4.2-1.5-8.9-1.5-13.1,0.1c-4.2,1.5-7.7,1.5-9.2,1.5c-3.2,0-6.3-0.5-9.2-1.6
	c-4.2-1.5-8.9-1.5-13.1,0.1c-4.2,1.5-7.7,1.5-9.2,1.5c-3.2,0-6.3-0.5-9.2-1.6c-4.2-1.5-8.9-1.5-13.1,0.1c-4.2,1.5-7.7,1.5-9.2,1.5
	c-3.2,0-6.3-0.5-9.2-1.6c-4.2-1.5-8.9-1.5-13.1,0.1c-4.2,1.5-7.7,1.5-9.2,1.5c-3.2,0-6.3-0.5-9.2-1.6c-4.2-1.5-8.9-1.5-13.1,0.1
	c-4.2,1.5-7.7,1.5-9.2,1.5c-3.2,0-6.3-0.5-9.2-1.6c-4.2-1.5-8.9-1.5-13.1,0.1c-4.2,1.5-7.7,1.5-9.2,1.5c-3.2,0-6.3-0.5-9.2-1.6
	c-2.1-0.8-4.3-1.1-6.6-1.1"/>
<path fill="none" stroke="#000000" stroke-width="0.5" stroke-miterlimit="10" d="M220.5,46.3c-5.7,0-8.1,6.7-10.2,12.5
	c-1.5,4.1-3.3,9.2-5.5,9.2s-4-5.1-5.5-9.2c-2.1-5.9-4.5-12.5-10.2-12.5s-8.1,6.7-10.2,12.5c-1.5,4.1-3.3,9.2-5.5,9.2s-4-5.1-5.5-9.2
	c-2.1-5.9-4.5-12.5-10.2-12.5s-8.1,6.7-10.2,12.5c-1.5,4.1-3.3,9.2-5.5,9.2s-4-5.1-5.5-9.2c-2.1-5.9-4.5-12.5-10.2-12.5
	s-8.1,6.7-10.2,12.5c-1.5,4.1-3.3,9.2-5.5,9.2s-4-5.1-5.5-9.2c-2.1-5.9-4.5-12.5-10.2-12.5s-8.1,6.7-10.2,12.5
	c-1.5,4.1-3.3,9.2-5.5,9.2s-4-5.1-5.5-9.2c-2.1-5.9-4.5-12.5-10.2-12.5s-8.1,6.7-10.2,12.5c-1.5,4.1-3.3,9.2-5.5,9.2s-4-5.1-5.5-9.2
	c-2.1-5.9-4.5-12.5-10.2-12.5s-8.1,6.7-10.2,12.5c-1.5,4.1-3.3,9.2-5.5,9.2s-4-5.1-5.5-9.2C8.1,52.9,5.7,46.2,0,46.2"/>
<path fill="none" stroke="#000000" stroke-width="0.5" stroke-miterlimit="10" d="M220.5,61.2c-0.3,0-0.6,0.3-0.8,0.9c0,0,0,0,0,0
	c-2.4,6.7-5.7,15.8-14.9,15.8c-9.2,0-12.5-9.1-14.9-15.8c0,0,0,0,0,0c-0.4-1.2-1.2-1.2-1.6,0c0,0,0,0,0,0
	c-2.4,6.7-5.7,15.8-14.9,15.8c-9.2,0-12.5-9.1-14.9-15.8c0,0,0,0,0,0c-0.4-1.2-1.2-1.2-1.6,0c0,0,0,0,0,0
	c-2.4,6.7-5.7,15.8-14.9,15.8c-9.2,0-12.5-9.1-14.9-15.8c0,0,0,0,0,0c-0.4-1.2-1.2-1.2-1.6,0c0,0,0,0,0,0
	c-2.4,6.7-5.7,15.8-14.9,15.8c-9.2,0-12.5-9.1-14.9-15.8c0,0,0,0,0,0c-0.4-1.2-1.2-1.2-1.6,0c0,0,0,0,0,0C91.3,68.9,87.9,78,78.8,78
	c-9.2,0-12.5-9.1-14.9-15.8c0,0,0,0,0,0c-0.4-1.2-1.2-1.2-1.6,0c0,0,0,0,0,0C59.8,68.9,56.4,78,47.2,78c-9.2,0-12.5-9.1-14.9-15.8
	c0,0,0,0,0,0c-0.4-1.2-1.2-1.2-1.6,0c0,0,0,0,0,0C28.3,68.9,24.9,78,15.8,78C6.6,78,3.2,68.9,0.8,62.2c0,0,0,0,0,0
	c-0.2-0.6-0.5-0.9-0.8-0.9"/>
<path fill="none" stroke="#000000" stroke-width="0.5" stroke-miterlimit="10" d="M0,67.7c0.2,0,0.3,0.1,0.5,0.4
	c2.6,6.1,6.8,12.3,15.3,12.3S28.4,74.2,31,68.2c0.3-0.6,0.7-0.6,0.9,0c2.6,6.1,6.8,12.3,15.3,12.3s12.7-6.3,15.3-12.3
	c0.3-0.6,0.7-0.6,0.9,0c2.6,6.1,6.8,12.3,15.3,12.3S91.4,74.2,94,68.2c0.3-0.6,0.7-0.6,0.9,0c2.6,6.1,6.8,12.3,15.3,12.3
	s12.7-6.3,15.3-12.3c0.3-0.6,0.7-0.6,0.9,0c2.6,6.1,6.8,12.3,15.3,12.3s12.7-6.3,15.3-12.3c0.3-0.6,0.7-0.6,0.9,0
	c2.6,6.1,6.8,12.3,15.3,12.3s12.7-6.3,15.3-12.3c0.3-0.6,0.7-0.6,0.9,0c2.6,6.1,6.8,12.3,15.3,12.3s12.7-6.3,15.3-12.3
	c0.1-0.3,0.3-0.4,0.5-0.4"/>
<path fill="none" stroke="#000000" stroke-width="0.5" stroke-miterlimit="10" d="M220.5,54.9c-0.3,0-0.7,0.3-0.9,0.8
	c-0.9,1.8-1.8,4.3-2.3,5.7c-2.3,6.3-5.1,14.2-12.6,14.2s-10.3-7.9-12.6-14.2c-0.5-1.3-1.4-3.9-2.3-5.7c-0.5-1-1.3-1-1.8,0
	c-0.9,1.8-1.8,4.3-2.3,5.7c-2.3,6.3-5.1,14.2-12.6,14.2s-10.3-7.9-12.6-14.2c-0.5-1.3-1.4-3.9-2.3-5.7c-0.5-1-1.3-1-1.8,0
	c-0.9,1.8-1.8,4.3-2.3,5.7c-2.3,6.3-5.1,14.2-12.6,14.2s-10.3-7.9-12.6-14.2c-0.5-1.3-1.4-3.9-2.3-5.7c-0.5-1-1.3-1-1.8,0
	c-0.9,1.8-1.8,4.3-2.3,5.7c-2.3,6.3-5.1,14.2-12.6,14.2S100,67.6,97.7,61.3c-0.5-1.3-1.4-3.9-2.3-5.7c-0.5-1-1.3-1-1.8,0
	c-0.9,1.8-1.8,4.3-2.3,5.7c-2.3,6.3-5.1,14.2-12.6,14.2s-10.3-7.9-12.6-14.2c-0.5-1.3-1.4-3.9-2.3-5.7c-0.5-1-1.3-1-1.8,0
	c-0.9,1.8-1.8,4.3-2.3,5.7c-2.3,6.3-5.1,14.2-12.6,14.2S37,67.6,34.7,61.3c-0.5-1.3-1.4-3.9-2.3-5.7c-0.5-1-1.3-1-1.8,0
	c-0.9,1.8-1.8,4.3-2.3,5.7c-2.3,6.3-5.1,14.2-12.6,14.2S5.5,67.6,3.2,61.3c-0.5-1.3-1.4-3.9-2.3-5.7c-0.3-0.5-0.6-0.8-0.9-0.8"/>
<path fill="none" stroke="#000000" stroke-width="0.5" stroke-miterlimit="10" d="M220.5,41.3c-9.2,0-12.5,9.1-14.9,15.8
	c-0.1,0.3-0.2,0.6-0.4,1c-0.3,0.7-0.7,0.7-0.9,0c-0.1-0.4-0.3-0.7-0.4-1c-2.4-6.7-5.7-15.8-14.9-15.8c-9.2,0-12.5,9.1-14.9,15.8
	c-0.1,0.3-0.2,0.6-0.4,1c-0.3,0.7-0.7,0.7-0.9,0c-0.1-0.4-0.3-0.7-0.4-1c-2.4-6.7-5.7-15.8-14.9-15.8c-9.2,0-12.5,9.1-14.9,15.8
	c-0.1,0.3-0.2,0.6-0.4,1c-0.3,0.7-0.7,0.7-0.9,0c-0.1-0.4-0.3-0.7-0.4-1c-2.4-6.7-5.7-15.8-14.9-15.8c-9.2,0-12.5,9.1-14.9,15.8
	c-0.1,0.3-0.2,0.6-0.4,1c-0.3,0.7-0.7,0.7-0.9,0c-0.1-0.4-0.3-0.7-0.4-1c-2.4-6.7-5.7-15.8-14.9-15.8c-9.2,0-12.5,9.1-14.9,15.8
	c-0.1,0.3-0.2,0.6-0.4,1c-0.3,0.7-0.7,0.7-0.9,0c-0.1-0.4-0.3-0.7-0.4-1c-2.4-6.7-5.7-15.8-14.9-15.8c-9.2,0-12.5,9.1-14.9,15.8
	c-0.1,0.3-0.2,0.6-0.4,1c-0.3,0.7-0.7,0.7-0.9,0c-0.1-0.4-0.3-0.7-0.4-1c-2.4-6.7-5.7-15.8-14.9-15.8c-9.2,0-12.5,9.1-14.9,15.8
	c-0.1,0.3-0.2,0.6-0.4,1c-0.3,0.7-0.7,0.7-0.9,0c-0.1-0.4-0.3-0.7-0.4-1C12.5,50.4,9.2,41.2,0,41.2"/>
<path fill="none" stroke="#000000" stroke-width="0.5" stroke-miterlimit="10" d="M0,43.8c7.4,0,10.3,7.9,12.6,14.2
	c0.5,1.3,1.4,3.9,2.3,5.7c0.5,1,1.3,1,1.8,0c0.9-1.8,1.8-4.3,2.3-5.7c2.3-6.3,5.1-14.2,12.6-14.2s10.3,7.9,12.6,14.2
	c0.5,1.3,1.4,3.9,2.3,5.7c0.5,1,1.3,1,1.8,0c0.9-1.8,1.8-4.3,2.3-5.7c2.3-6.3,5.1-14.2,12.6-14.2s10.3,7.9,12.6,14.2
	c0.5,1.3,1.4,3.9,2.3,5.7c0.5,1,1.3,1,1.8,0c0.9-1.8,1.8-4.3,2.3-5.7c2.3-6.3,5.1-14.2,12.6-14.2s10.3,7.9,12.6,14.2
	c0.5,1.3,1.4,3.9,2.3,5.7c0.5,1,1.3,1,1.8,0c0.9-1.8,1.8-4.3,2.3-5.7c2.3-6.3,5.1-14.2,12.6-14.2s10.3,7.9,12.6,14.2
	c0.5,1.3,1.4,3.9,2.3,5.7c0.5,1,1.3,1,1.8,0c0.9-1.8,1.8-4.3,2.3-5.7c2.3-6.3,5.1-14.2,12.6-14.2s10.3,7.9,12.6,14.2
	c0.5,1.3,1.4,3.9,2.3,5.7c0.5,1,1.3,1,1.8,0c0.9-1.8,1.8-4.3,2.3-5.7c2.3-6.3,5.1-14.2,12.6-14.2s10.3,7.9,12.6,14.2
	c0.5,1.3,1.4,3.9,2.3,5.7c0.5,1,1.3,1,1.8,0c0.9-1.8,1.8-4.3,2.3-5.7c2.3-6.3,5.1-14.2,12.6-14.2"/>
<path fill="none" stroke="#000000" stroke-width="0.5" stroke-miterlimit="10" d="M220.5,38.8c-8.5,0-12.7,6.3-15.3,12.3
	c-0.3,0.6-0.7,0.6-0.9,0c-2.6-6.1-6.8-12.3-15.3-12.3c-8.5,0-12.7,6.3-15.3,12.3c-0.3,0.6-0.7,0.6-0.9,0
	c-2.6-6.1-6.8-12.3-15.3-12.3c-8.5,0-12.7,6.3-15.3,12.3c-0.3,0.6-0.7,0.6-0.9,0c-2.6-6.1-6.8-12.3-15.3-12.3
	c-8.5,0-12.7,6.3-15.3,12.3c-0.3,0.6-0.7,0.6-0.9,0c-2.6-6.1-6.8-12.3-15.3-12.3c-8.5,0-12.7,6.3-15.3,12.3c-0.3,0.6-0.7,0.6-0.9,0
	C75.7,45,71.5,38.8,63,38.8c-8.5,0-12.7,6.3-15.3,12.3c-0.3,0.6-0.7,0.6-0.9,0C44.2,45,40,38.8,31.5,38.8c-8.5,0-12.7,6.3-15.3,12.3
	c-0.3,0.6-0.7,0.6-0.9,0C12.7,45,8.5,38.8,0,38.8"/>
<path fill="none" stroke="#000000" stroke-width="0.5" stroke-miterlimit="10" d="M0,73.3c0.1,0,0.3,0.1,0.4,0.3
	C3,77.8,7.6,83,15.8,83c2.5,0,9.5,0,15.3-9.4c0.2-0.4,0.6-0.4,0.9,0c2.6,4.3,7.2,9.4,15.4,9.4c2.5,0,9.5,0,15.3-9.4
	c0.2-0.4,0.6-0.4,0.9,0C66,77.8,70.6,83,78.8,83c2.5,0,9.5,0,15.3-9.4c0.2-0.4,0.6-0.4,0.9,0c2.6,4.3,7.2,9.4,15.4,9.4
	c2.5,0,9.5,0,15.3-9.4c0.2-0.4,0.6-0.4,0.9,0c2.6,4.3,7.2,9.4,15.4,9.4c2.5,0,9.5,0,15.3-9.4c0.2-0.4,0.6-0.4,0.9,0
	c2.6,4.3,7.2,9.4,15.4,9.4c2.5,0,9.5,0,15.3-9.4c0.2-0.4,0.6-0.4,0.9,0c2.6,4.3,7.2,9.4,15.4,9.4c2.5,0,9.5,0,15.3-9.4
	c0.1-0.2,0.3-0.3,0.5-0.3"/>
<path fill="none" stroke="#000000" stroke-width="0.5" stroke-miterlimit="10" d="M220.5,96.8c-1.3,0-2.5,0.3-3.7,0.9
	c-5.4,2.8-10.3,2.8-12.1,2.8c-4.3,0-8.4-1-12-2.8c-2.3-1.2-5.1-1.1-7.4,0c-5.4,2.8-10.3,2.8-12.1,2.8c-4.3,0-8.4-1-12-2.8
	c-2.3-1.2-5.1-1.1-7.4,0c-5.4,2.8-10.3,2.8-12.1,2.8c-4.3,0-8.4-1-12-2.8c-2.3-1.2-5.1-1.1-7.4,0c-5.4,2.8-10.3,2.8-12.1,2.8
	c-4.3,0-8.4-1-12-2.8c-2.3-1.2-5.1-1.1-7.4,0c-5.4,2.8-10.3,2.8-12.1,2.8c-4.3,0-8.4-1-12-2.8c-2.3-1.2-5.1-1.1-7.4,0
	c-5.4,2.8-10.3,2.8-12.1,2.8c-4.3,0-8.4-1-12-2.8c-2.3-1.2-5.1-1.1-7.4,0c-5.4,2.8-10.3,2.8-12.1,2.8c-4.3,0-8.4-1-12-2.8
	c-1.2-0.6-2.4-0.9-3.7-0.9"/>
<path fill="none" stroke="#000000" stroke-width="0.5" stroke-miterlimit="10" d="M0,99.6c1.6,0,3.2,0.3,4.7,1
	c3.4,1.5,7.1,2.3,11,2.3c1.7,0,6.2,0,11.3-2.4c2.9-1.4,6.3-1.3,9.2,0c3.4,1.5,7.1,2.3,11,2.3c1.7,0,6.2,0,11.3-2.4
	c2.9-1.4,6.3-1.3,9.2,0c3.4,1.5,7.1,2.3,11,2.3c1.7,0,6.2,0,11.3-2.4c2.9-1.4,6.3-1.3,9.2,0c3.4,1.5,7.1,2.3,11,2.3
	c1.7,0,6.2,0,11.3-2.4c2.9-1.4,6.3-1.3,9.2,0c3.4,1.5,7.1,2.3,11,2.3c1.7,0,6.2,0,11.3-2.4c2.9-1.4,6.3-1.3,9.2,0
	c3.4,1.5,7.1,2.3,11,2.3c1.7,0,6.2,0,11.3-2.4c2.9-1.4,6.3-1.3,9.2,0c3.4,1.5,7.1,2.3,11,2.3c1.7,0,6.2,0,11.3-2.4
	c1.4-0.7,3-1,4.5-1"/>
<path fill="none" stroke="#000000" stroke-width="0.5" stroke-miterlimit="10" d="M220.5,94c-1,0-2,0.3-2.9,0.8
	c-5.7,3.2-10.9,3.2-12.9,3.2c-4.5,0-8.9-1.1-12.8-3.2c-1.8-1-4-1-5.9,0c-5.7,3.2-10.9,3.2-12.9,3.2c-4.5,0-8.9-1.1-12.8-3.2
	c-1.8-1-4-1-5.9,0c-5.7,3.2-10.9,3.2-12.9,3.2c-4.5,0-8.9-1.1-12.8-3.2c-1.8-1-4-1-5.9,0c-5.7,3.2-10.9,3.2-12.9,3.2
	c-4.5,0-8.9-1.1-12.8-3.2c-1.8-1-4-1-5.9,0C85.9,98,80.7,98,78.8,98c-4.5,0-8.9-1.1-12.8-3.2c-1.8-1-4-1-5.9,0
	C54.4,98,49.2,98,47.2,98c-4.5,0-8.9-1.1-12.8-3.2c-1.8-1-4-1-5.9,0C22.9,98,17.7,98,15.8,98c-4.5,0-8.9-1.1-12.8-3.2
	C2,94.3,1,94,0,94"/>
<path fill="none" stroke="#000000" stroke-width="0.5" stroke-miterlimit="10" d="M0,102.4c1.9,0,3.8,0.4,5.6,1.1
	c3.2,1.3,6.6,2,10.2,2c1.6,0,5.7,0,10.4-2c3.5-1.5,7.4-1.4,10.9,0c3.2,1.3,6.6,2,10.2,2c1.6,0,5.7,0,10.4-2c3.5-1.5,7.4-1.4,10.9,0
	c3.2,1.3,6.6,2,10.2,2c1.6,0,5.7,0,10.4-2c3.5-1.5,7.4-1.4,10.9,0c3.2,1.3,6.6,2,10.2,2c1.6,0,5.7,0,10.4-2c3.5-1.5,7.4-1.4,10.9,0
	c3.2,1.3,6.6,2,10.2,2c1.6,0,5.7,0,10.4-2c3.5-1.5,7.4-1.4,10.9,0c3.2,1.3,6.6,2,10.2,2c1.6,0,5.7,0,10.4-2c3.5-1.5,7.4-1.4,10.9,0
	c3.2,1.3,6.6,2,10.2,2c1.6,0,5.7,0,10.4-2c1.7-0.7,3.5-1.1,5.4-1.1"/>
<path fill="none" stroke="#000000" stroke-width="0.5" stroke-miterlimit="10" d="M0,77.7c0.1,0,0.3,0.1,0.4,0.2
	c4,5,9.3,7.6,15.4,7.6c2.4,0,9.3,0,15.3-7.6c0.2-0.3,0.6-0.3,0.8,0c4,5,9.3,7.6,15.4,7.6c2.4,0,9.3,0,15.3-7.6
	c0.2-0.3,0.6-0.3,0.8,0c4,5,9.3,7.6,15.4,7.6c2.4,0,9.3,0,15.3-7.6c0.2-0.3,0.6-0.3,0.8,0c4,5,9.3,7.6,15.4,7.6
	c2.4,0,9.3,0,15.3-7.6c0.2-0.3,0.6-0.3,0.8,0c4,5,9.3,7.6,15.4,7.6c2.4,0,9.3,0,15.3-7.6c0.2-0.3,0.6-0.3,0.8,0
	c4,5,9.3,7.6,15.4,7.6c2.4,0,9.3,0,15.3-7.6c0.2-0.3,0.6-0.3,0.8,0c4,5,9.3,7.6,15.4,7.6c2.4,0,9.3,0,15.3-7.6
	c0.1-0.1,0.3-0.2,0.4-0.2"/>
<path fill="none" stroke="#000000" stroke-width="0.5" stroke-miterlimit="10" d="M220.5,91.5c-0.9,0-1.8,0.2-2.5,0.6
	c-5.9,3.4-11.3,3.4-13.2,3.4c-4.7,0-9.3-1.2-13.3-3.5c-1.4-0.8-3.6-0.7-5,0.1c-5.9,3.4-11.3,3.4-13.2,3.4c-4.7,0-9.3-1.2-13.3-3.5
	c-1.4-0.8-3.6-0.7-5,0.1c-5.9,3.4-11.3,3.4-13.2,3.4c-4.7,0-9.3-1.2-13.3-3.5c-1.4-0.8-3.6-0.7-5,0.1c-5.9,3.4-11.3,3.4-13.2,3.4
	c-4.7,0-9.3-1.2-13.3-3.5c-1.4-0.8-3.6-0.7-5,0.1c-5.9,3.4-11.3,3.4-13.2,3.4c-4.7,0-9.3-1.2-13.3-3.5c-1.4-0.8-3.6-0.7-5,0.1
	c-5.9,3.4-11.3,3.4-13.2,3.4c-4.7,0-9.3-1.2-13.3-3.5c-1.4-0.8-3.6-0.7-5,0.1c-5.9,3.4-11.3,3.4-13.2,3.4c-4.7,0-9.3-1.2-13.3-3.5
	c-0.7-0.4-1.6-0.6-2.5-0.6"/>
<path fill="none" stroke="#000000" stroke-width="0.5" stroke-miterlimit="10" d="M220.5,81.7c-0.3,0-0.5,0.1-0.7,0.3
	c-6.2,6.1-12.7,6.1-15,6.1c-5.8,0-10.9-2.1-15.1-6.1c-0.4-0.4-1-0.3-1.4,0c-6.2,6.1-12.7,6.1-15,6.1c-5.8,0-10.9-2.1-15.1-6.1
	c-0.4-0.4-1-0.3-1.4,0c-6.2,6.1-12.7,6.1-15,6.1c-5.8,0-10.9-2.1-15.1-6.1c-0.4-0.4-1-0.3-1.4,0c-6.2,6.1-12.7,6.1-15,6.1
	c-5.8,0-10.9-2.1-15.1-6.1c-0.4-0.4-1-0.3-1.4,0C87.6,88,81.1,88,78.8,88c-5.8,0-10.9-2.1-15.1-6.1c-0.4-0.4-1-0.3-1.4,0
	C56.1,88,49.6,88,47.2,88c-5.8,0-10.9-2.1-15.1-6.1c-0.4-0.4-1-0.3-1.4,0C24.6,88,18.1,88,15.8,88C10,88,4.8,85.9,0.7,81.9
	c-0.2-0.2-0.4-0.3-0.7-0.3"/>
<path fill="none" stroke="#000000" stroke-width="0.5" stroke-miterlimit="10" d="M0,85.3c0.4,0,0.9,0.1,1.2,0.4
	c4.2,3.2,9.2,4.8,14.5,4.8c2.2,0,8.3,0,14.5-4.8c0.7-0.6,1.7-0.6,2.5,0c4.2,3.2,9.2,4.8,14.5,4.8c2.2,0,8.3,0,14.5-4.8
	c0.7-0.6,1.7-0.6,2.5,0c4.2,3.2,9.2,4.8,14.5,4.8c2.2,0,8.3,0,14.5-4.8c0.7-0.6,1.7-0.6,2.5,0c4.2,3.2,9.2,4.8,14.5,4.8
	c2.2,0,8.3,0,14.5-4.8c0.7-0.6,1.7-0.6,2.5,0c4.2,3.2,9.2,4.8,14.5,4.8c2.2,0,8.3,0,14.5-4.8c0.7-0.6,1.7-0.6,2.5,0
	c4.2,3.2,9.2,4.8,14.5,4.8c2.2,0,8.3,0,14.5-4.8c0.7-0.6,1.7-0.6,2.5,0c4.2,3.2,9.2,4.8,14.5,4.8c2.2,0,8.3,0,14.5-4.8
	c0.4-0.3,0.8-0.4,1.2-0.4"/>
<path fill="none" stroke="#000000" stroke-width="0.5" stroke-miterlimit="10" d="M220.5,88.7c-0.7,0-1.4,0.2-2,0.6
	c-6.1,3.7-11.7,3.7-13.7,3.7c-4.9,0-9.5-1.3-13.6-3.7c-1.3-0.8-2.9-0.8-4.1,0c-6.1,3.7-11.7,3.7-13.7,3.7c-4.9,0-9.5-1.3-13.6-3.7
	c-1.3-0.8-2.9-0.8-4.1,0c-6.1,3.7-11.7,3.7-13.7,3.7c-4.9,0-9.5-1.3-13.6-3.7c-1.3-0.8-2.9-0.8-4.1,0c-6.1,3.7-11.7,3.7-13.7,3.7
	c-4.9,0-9.5-1.3-13.6-3.7c-1.3-0.8-2.9-0.8-4.1,0C86.4,93,80.8,93,78.8,93c-4.9,0-9.5-1.3-13.6-3.7c-1.3-0.8-2.9-0.8-4.1,0
	C54.9,93,49.3,93,47.2,93c-4.9,0-9.5-1.3-13.6-3.7c-1.3-0.8-2.9-0.8-4.1,0C23.4,93,17.8,93,15.8,93c-4.9,0-9.5-1.3-13.6-3.7
	c-0.7-0.4-1.4-0.6-2.1-0.6"/>
<rect x="63" y="0" width="1.3" height="1.3"/>
<rect x="78.7" y="123" width="1.2" height="1.2"/>
</svg>
