<svg xmlns="http://www.w3.org/2000/svg" xmlns:xlink="http://www.w3.org/1999/xlink" version="1.1" id="Layer_1" x="0px" y="0px" width="441px" height="248.5px" viewBox="0 0 441 248.5" enable-background="new 0 0 441 248.5" xml:space="preserve"><path fill="none" stroke="#000000" stroke-miterlimit="10" d="M126 104.8"/><path fill="none" stroke="#000000" stroke-miterlimit="10" d="M441 67.5c-4.8 0-18.5 0-30.7 15.2c-0.4 0.5-1.1 0.5-1.6 0 c-8-10-18.5-15.2-30.8-15.2c-4.8 0-18.5 0-30.7 15.2c-0.4 0.5-1.1 0.5-1.6 0c-8-10-18.5-15.2-30.8-15.2c-4.8 0-18.5 0-30.7 15.2 c-0.4 0.5-1.1 0.5-1.6 0c-8-10-18.5-15.2-30.8-15.2c-4.8 0-18.5 0-30.7 15.2c-0.4 0.5-1.1 0.5-1.6 0c-8-10-18.5-15.2-30.8-15.2 c-4.8 0-18.5 0-30.7 15.2c-0.4 0.5-1.1 0.5-1.6 0c-8-10-18.5-15.2-30.8-15.2c-4.8 0-18.5 0-30.7 15.2c-0.4 0.5-1.1 0.5-1.6 0 c-8-10-18.5-15.2-30.8-15.2c-4.8 0-18.5 0-30.7 15.2c-0.4 0.5-1.1 0.5-1.6 0c-8-10-18.5-15.2-30.8-15.2"/><path fill="none" stroke="#000000" stroke-miterlimit="10" d="M0 72.5c16.3 0 25.6 10.3 30.7 18.8c0.5 0.8 1.2 0.8 1.7 0 C43.9 72.5 58 72.5 63 72.5c16.3 0 25.6 10.3 30.7 18.8c0.5 0.8 1.2 0.8 1.7 0C106.9 72.5 121 72.5 126 72.5 c16.3 0 25.6 10.3 30.7 18.8c0.5 0.8 1.2 0.8 1.7 0C169.9 72.5 184 72.5 189 72.5c16.3 0 25.6 10.3 30.7 18.8c0.5 0.8 1.2 0.8 1.7 0 C232.9 72.5 247 72.5 252 72.5c16.3 0 25.6 10.3 30.7 18.8c0.5 0.8 1.2 0.8 1.7 0C295.9 72.5 310 72.5 315 72.5 c16.3 0 25.6 10.3 30.7 18.8c0.5 0.8 1.2 0.8 1.7 0C358.9 72.5 373 72.5 378 72.5c16.3 0 25.6 10.3 30.7 18.8c0.5 0.8 1.2 0.8 1.7 0 C421.9 72.5 436 72.5 441 72.5"/><path fill="none" stroke="#000000" stroke-miterlimit="10" d="M441 52.5c-4.1 0-15.9 0-28.3 8c-1.7 1.1-4.6 1.2-6.3 0.1 c-8.4-5.3-18.1-8.1-28.3-8.1c-4.1 0-15.9 0-28.3 8c-1.7 1.1-4.6 1.2-6.3 0.1c-8.4-5.3-18.1-8.1-28.3-8.1c-4.1 0-15.9 0-28.3 8 c-1.7 1.1-4.6 1.2-6.3 0.1c-8.4-5.3-18.1-8.1-28.3-8.1c-4.1 0-15.9 0-28.3 8c-1.7 1.1-4.6 1.2-6.3 0.1c-8.4-5.3-18.1-8.1-28.3-8.1 c-4.1 0-15.9 0-28.3 8c-1.7 1.1-4.6 1.2-6.3 0.1c-8.4-5.3-18.1-8.1-28.3-8.1c-4.1 0-15.9 0-28.3 8c-1.7 1.1-4.6 1.2-6.3 0.1 c-8.4-5.3-18.1-8.1-28.3-8.1c-4.1 0-15.9 0-28.3 8c-1.7 1.1-4.6 1.2-6.3 0.1c-8.4-5.3-18.1-8.1-28.3-8.1"/><path fill="none" stroke="#000000" stroke-miterlimit="10" d="M0 57.5c11 0 21.1 3.5 29.7 10.1c1 0.8 2.7 0.8 3.7 0 C46 57.5 58.6 57.5 63 57.5c11 0 21.1 3.5 29.7 10.1c1 0.8 2.7 0.8 3.7 0C109 57.5 121.6 57.5 126 57.5c11 0 21.1 3.5 29.7 10.1 c1 0.8 2.7 0.8 3.7 0C172 57.5 184.6 57.5 189 57.5c11 0 21.1 3.5 29.7 10.1c1 0.8 2.7 0.8 3.7 0C235 57.5 247.6 57.5 252 57.5 c11 0 21.1 3.5 29.7 10.1c1 0.8 2.7 0.8 3.7 0C298 57.5 310.6 57.5 315 57.5c11 0 21.1 3.5 29.7 10.1c1 0.8 2.7 0.8 3.7 0 C361 57.5 373.6 57.5 378 57.5c11 0 21.1 3.5 29.7 10.1c1 0.8 2.7 0.8 3.7 0C424 57.5 436.6 57.5 441 57.5"/><path fill="none" stroke="#000000" stroke-miterlimit="10" d="M441 62.5c-4.6 0-17.7 0-30.1 12.1c-0.7 0.7-2 0.7-2.7 0 c-8.3-8-18.6-12.1-30.2-12.1c-4.6 0-17.7 0-30.1 12.1c-0.7 0.7-2 0.7-2.7 0c-8.3-8-18.6-12.1-30.2-12.1c-4.6 0-17.7 0-30.1 12.1 c-0.7 0.7-2 0.7-2.7 0c-8.3-8-18.6-12.1-30.2-12.1c-4.6 0-17.7 0-30.1 12.1c-0.7 0.7-2 0.7-2.7 0c-8.3-8-18.6-12.1-30.2-12.1 c-4.6 0-17.7 0-30.1 12.1c-0.7 0.7-2 0.7-2.7 0c-8.3-8-18.6-12.1-30.2-12.1c-4.6 0-17.7 0-30.1 12.1c-0.7 0.7-2 0.7-2.7 0 c-8.3-8-18.6-12.1-30.2-12.1c-4.6 0-17.7 0-30.1 12.1c-0.7 0.7-2 0.7-2.7 0c-8.3-8-18.6-12.1-30.2-12.1"/><path fill="none" stroke="#000000" stroke-miterlimit="10" d="M441 47.5c-4.1 0-15.3 0-27.5 7.4c-2.3 1.4-6 1.3-8.3 0 c-8.2-4.9-17.5-7.4-27.3-7.4c-4.1 0-15.3 0-27.5 7.4c-2.3 1.4-6 1.3-8.3 0c-8.2-4.9-17.5-7.4-27.3-7.4c-4.1 0-15.3 0-27.5 7.4 c-2.3 1.4-6 1.3-8.3 0c-8.2-4.9-17.5-7.4-27.3-7.4c-4.1 0-15.3 0-27.5 7.4c-2.3 1.4-6 1.3-8.3 0c-8.2-4.9-17.5-7.4-27.3-7.4 c-4.1 0-15.3 0-27.5 7.4c-2.3 1.4-6 1.3-8.3 0c-8.2-4.9-17.5-7.4-27.3-7.4c-4.1 0-15.3 0-27.5 7.4c-2.3 1.4-6 1.3-8.3 0 C82.1 50 72.8 47.5 63 47.5c-4.1 0-15.3 0-27.5 7.4c-2.3 1.4-6 1.3-8.3 0C19.1 50 9.8 47.5 0 47.5"/><path fill="none" stroke="#000000" stroke-miterlimit="10" d="M441 222.3c-6.3 0.1-12.5 0.9-18.7 2.3c-5.9 1.4-10.5 1.4-12.8 1.4 c-4.5 0-8.8-0.5-13.1-1.6c-12.2-3-24.9-2.7-37.1 0.2c-5.9 1.4-10.5 1.4-12.8 1.4c-4.5 0-8.8-0.5-13.1-1.6c-12.2-3-24.9-2.7-37.1 0.2 c-5.9 1.4-10.5 1.4-12.8 1.4c-4.5 0-8.8-0.5-13.1-1.6c-12.2-3-24.9-2.7-37.1 0.2c-5.9 1.4-10.5 1.4-12.8 1.4 c-4.5 0-8.8-0.5-13.1-1.6c-12.2-3-24.9-2.7-37.1 0.2c-5.9 1.4-10.5 1.4-12.8 1.4c-4.5 0-8.8-0.5-13.1-1.6c-12.2-3-24.9-2.7-37.1 0.2 c-5.9 1.4-10.5 1.4-12.8 1.4c-4.5 0-8.8-0.5-13.1-1.6c-12.2-3-24.9-2.7-37.1 0.2c-5.9 1.4-10.5 1.4-12.8 1.4 c-4.5 0-8.8-0.5-13.1-1.6c-6.1-1.5-12.2-2.2-18.4-2.1"/><path fill="none" stroke="#000000" stroke-miterlimit="10" d="M0 228.2c7.4 0 14.7 0.7 22 2c3.1 0.5 6.2 0.8 9.5 0.8 c2 0 5.7 0 10.4-0.9c14.3-2.7 28.8-2.4 43.1 0.1c3.1 0.5 6.2 0.8 9.5 0.8c2 0 5.7 0 10.4-0.9c14.3-2.7 28.8-2.4 43.1 0.1 c3.1 0.5 6.2 0.8 9.5 0.8c2 0 5.7 0 10.4-0.9c14.3-2.7 28.8-2.4 43.1 0.1c3.1 0.5 6.2 0.8 9.5 0.8c2 0 5.7 0 10.4-0.9 c14.3-2.7 28.8-2.4 43.1 0.1c3.1 0.5 6.2 0.8 9.5 0.8c2 0 5.7 0 10.4-0.9c14.3-2.7 28.8-2.4 43.1 0.1c3.1 0.5 6.2 0.8 9.5 0.8 c2 0 5.7 0 10.4-0.9c14.3-2.7 28.8-2.4 43.1 0.1c3.1 0.5 6.2 0.8 9.5 0.8c2 0 5.7 0 10.4-0.9c7-1.3 14-1.9 21.1-1.9"/><path fill="none" stroke="#000000" stroke-miterlimit="10" d="M441 216.2c-5.2 0.1-10.4 0.9-15.4 2.5c-7.4 2.3-13.4 2.3-16.1 2.3 c-5.7 0-11.3-0.9-16.5-2.6c-9.9-3.2-20.5-2.8-30.4 0.3c-7.4 2.3-13.4 2.3-16.1 2.3c-5.7 0-11.3-0.9-16.5-2.6 c-9.9-3.2-20.5-2.8-30.4 0.3c-7.4 2.3-13.4 2.3-16.1 2.3c-5.7 0-11.3-0.9-16.5-2.6c-9.9-3.2-20.5-2.8-30.4 0.3 c-7.4 2.3-13.4 2.3-16.1 2.3c-5.7 0-11.3-0.9-16.5-2.6c-9.9-3.2-20.5-2.8-30.4 0.3c-7.4 2.3-13.4 2.3-16.1 2.3 c-5.7 0-11.3-0.9-16.5-2.6c-9.9-3.2-20.5-2.8-30.4 0.3c-7.4 2.3-13.4 2.3-16.1 2.3c-5.7 0-11.3-0.9-16.5-2.6 c-9.9-3.2-20.5-2.8-30.4 0.3c-7.4 2.3-13.4 2.3-16.1 2.3c-5.7 0-11.3-0.9-16.5-2.6c-4.9-1.6-9.9-2.3-15-2.2"/><path fill="none" stroke="#000000" stroke-miterlimit="10" d="M441 234.2c-8.2 0-16.4 0.5-24.6 1.5c-3 0.3-5.4 0.3-6.9 0.3 c-2.2 0-4.4-0.1-6.5-0.4c-16.5-2-33.1-1.8-49.6 0c-3 0.3-5.4 0.3-6.9 0.3c-2.2 0-4.4-0.1-6.5-0.4c-16.5-2-33.1-1.8-49.6 0 c-3 0.3-5.4 0.3-6.9 0.3c-2.2 0-4.4-0.1-6.5-0.4c-16.5-2-33.1-1.8-49.6 0c-3 0.3-5.4 0.3-6.9 0.3c-2.2 0-4.4-0.1-6.5-0.4 c-16.5-2-33.1-1.8-49.6 0c-3 0.3-5.4 0.3-6.9 0.3c-2.2 0-4.4-0.1-6.5-0.4c-16.5-2-33.1-1.8-49.6 0c-3 0.3-5.4 0.3-6.9 0.3 c-2.2 0-4.4-0.1-6.5-0.4c-16.5-2-33.1-1.8-49.6 0c-3 0.3-5.4 0.3-6.9 0.3c-2.2 0-4.4-0.1-6.5-0.4c-8.3-1-16.6-1.4-25-1.4"/><path fill="none" stroke="#000000" stroke-miterlimit="10" d="M0 240.1c8.3 0 16.7 0.2 25 0.7c2.1 0.1 4.3 0.2 6.5 0.2 c1.4 0 3.8 0 6.9-0.2c16.5-0.9 33.1-1 49.6 0c2.1 0.1 4.3 0.2 6.5 0.2c1.4 0 3.8 0 6.9-0.2c16.5-0.9 33.1-1 49.6 0 c2.1 0.1 4.3 0.2 6.5 0.2c1.4 0 3.8 0 6.9-0.2c16.5-0.9 33.1-1 49.6 0c2.1 0.1 4.3 0.2 6.5 0.2c1.4 0 3.8 0 6.9-0.2 c16.5-0.9 33.1-1 49.6 0c2.1 0.1 4.3 0.2 6.5 0.2c1.4 0 3.8 0 6.9-0.2c16.5-0.9 33.1-1 49.6 0c2.1 0.1 4.3 0.2 6.5 0.2 c1.4 0 3.8 0 6.9-0.2c16.5-0.9 33.1-1 49.6 0c2.1 0.1 4.3 0.2 6.5 0.2c1.4 0 3.8 0 6.9-0.2c8.2-0.5 16.4-0.7 24.6-0.7"/><path fill="none" stroke="#000000" stroke-miterlimit="10" d="M0 245.8c8.3 0 16.7 0.1 25 0.2c2.1 0 4.3 0 6.5 0c1.4 0 3.8 0 6.9 0 c16.5-0.2 33.1-0.3 49.6 0c2.1 0 4.3 0 6.5 0c1.4 0 3.8 0 6.9 0c16.5-0.2 33.1-0.3 49.6 0c2.1 0 4.3 0 6.5 0c1.4 0 3.8 0 6.9 0 c16.5-0.2 33.1-0.3 49.6 0c2.1 0 4.3 0 6.5 0c1.4 0 3.8 0 6.9 0c16.5-0.2 33.1-0.3 49.6 0c2.1 0 4.3 0 6.5 0c1.4 0 3.8 0 6.9 0 c16.5-0.2 33.1-0.3 49.6 0c2.1 0 4.3 0 6.5 0c1.4 0 3.8 0 6.9 0c16.5-0.2 33.1-0.3 49.6 0c2.1 0 4.3 0 6.5 0c1.4 0 3.8 0 6.9 0 c8.2-0.1 16.4-0.2 24.6-0.2"/><path fill="none" stroke="#000000" stroke-miterlimit="10" d="M441 12.5c-2.7 0-8.8 0-16.1 2.3c-8.7 2.7-23 2.4-31.7-0.1 c-4.9-1.4-9.9-2.1-15.2-2.1c-2.7 0-8.8 0-16.1 2.3c-8.7 2.7-23 2.4-31.7-0.1c-4.9-1.4-9.9-2.1-15.2-2.1c-2.7 0-8.8 0-16.1 2.3 c-8.7 2.7-23 2.4-31.7-0.1c-4.9-1.4-9.9-2.1-15.2-2.1c-2.7 0-8.8 0-16.1 2.3c-8.7 2.7-23 2.4-31.7-0.1c-4.9-1.4-9.9-2.1-15.2-2.1 c-2.7 0-8.8 0-16.1 2.3c-8.7 2.7-23 2.4-31.7-0.1c-4.9-1.4-9.9-2.1-15.2-2.1c-2.7 0-8.8 0-16.1 2.3c-8.7 2.7-23 2.4-31.7-0.1 c-4.9-1.4-9.9-2.1-15.2-2.1c-2.7 0-8.8 0-16.1 2.3c-8.7 2.7-23 2.4-31.7-0.1c-4.9-1.4-9.9-2.1-15.2-2.1"/><path fill="none" stroke="#000000" stroke-miterlimit="10" d="M0 17.5c6.4 0 12.6 1.1 18.4 3.2c7.2 2.6 19.1 2.5 26.3-0.2 c8.4-3 15.4-3 18.4-3c6.4 0 12.6 1.1 18.4 3.2c7.2 2.6 19.1 2.5 26.3-0.2c8.4-3 15.4-3 18.4-3c6.4 0 12.6 1.1 18.4 3.2 c7.2 2.6 19.1 2.5 26.3-0.2c8.4-3 15.4-3 18.4-3c6.4 0 12.6 1.1 18.4 3.2c7.2 2.6 19.1 2.5 26.3-0.2c8.4-3 15.4-3 18.4-3 c6.4 0 12.6 1.1 18.4 3.2c7.2 2.6 19.1 2.5 26.3-0.2c8.4-3 15.4-3 18.4-3c6.4 0 12.6 1.1 18.4 3.2c7.2 2.6 19.1 2.5 26.3-0.2 c8.4-3 15.4-3 18.4-3c6.4 0 12.6 1.1 18.4 3.2c7.2 2.6 19.1 2.5 26.3-0.2c8.4-3 15.4-3 18.4-3"/><path fill="none" stroke="#000000" stroke-miterlimit="10" d="M441 42.5c-3.9 0-14.6 0-26.2 6.7c-2.9 1.7-7.8 1.7-10.7 0 c-7.9-4.4-16.7-6.7-26-6.7c-3.9 0-14.6 0-26.2 6.7c-2.9 1.7-7.8 1.7-10.7 0c-7.9-4.4-16.7-6.7-26-6.7c-3.9 0-14.6 0-26.2 6.7 c-2.9 1.7-7.8 1.7-10.7 0c-7.9-4.4-16.7-6.7-26-6.7c-3.9 0-14.6 0-26.2 6.7c-2.9 1.7-7.8 1.7-10.7 0c-7.9-4.4-16.7-6.7-26-6.7 c-3.9 0-14.6 0-26.2 6.7c-2.9 1.7-7.8 1.7-10.7 0c-7.9-4.4-16.7-6.7-26-6.7c-3.9 0-14.6 0-26.2 6.7c-2.9 1.7-7.8 1.7-10.7 0 c-7.9-4.4-16.7-6.7-26-6.7c-3.9 0-14.6 0-26.2 6.7c-2.9 1.7-7.8 1.7-10.7 0c-7.9-4.4-16.7-6.7-26-6.7"/><path fill="none" stroke="#000000" stroke-miterlimit="10" d="M441 7.5c-2.3 0-6.7 0-12.4 1.3c-10.5 2.4-27.6 2.7-38 0.2 c-4.1-1-8.3-1.5-12.6-1.5c-2.3 0-6.7 0-12.4 1.3c-10.5 2.4-27.6 2.7-38 0.2c-4.1-1-8.3-1.5-12.6-1.5c-2.3 0-6.7 0-12.4 1.3 c-10.5 2.4-27.6 2.7-38 0.2c-4.1-1-8.3-1.5-12.6-1.5c-2.3 0-6.7 0-12.4 1.3c-10.5 2.4-27.6 2.7-38 0.2c-4.1-1-8.3-1.5-12.6-1.5 c-2.3 0-6.7 0-12.4 1.3c-10.5 2.4-27.6 2.7-38 0.2c-4.1-1-8.3-1.5-12.6-1.5c-2.3 0-6.7 0-12.4 1.3c-10.5 2.4-27.6 2.7-38 0.2 C71.5 8 67.3 7.5 63 7.5c-2.3 0-6.7 0-12.4 1.3C40.2 11.1 23.1 11.5 12.6 9C8.5 8 4.3 7.5 0 7.5"/><path fill="none" stroke="#000000" stroke-miterlimit="10" d="M441 2.5c-2.3 0-6.7 0-12.4 0.6c-10.5 1.2-27.6 1.3-38 0.1 c-4.1-0.5-8.3-0.7-12.6-0.7c-2.3 0-6.7 0-12.4 0.6c-10.5 1.2-27.6 1.3-38 0.1c-4.1-0.5-8.3-0.7-12.6-0.7c-2.3 0-6.7 0-12.4 0.6 c-10.5 1.2-27.6 1.3-38 0.1c-4.1-0.5-8.3-0.7-12.6-0.7c-2.3 0-6.7 0-12.4 0.6c-10.5 1.2-27.6 1.3-38 0.1c-4.1-0.5-8.3-0.7-12.6-0.7 c-2.3 0-6.7 0-12.4 0.6c-10.5 1.2-27.6 1.3-38 0.1c-4.1-0.5-8.3-0.7-12.6-0.7c-2.3 0-6.7 0-12.4 0.6c-10.5 1.2-27.6 1.3-38 0.1 C71.5 2.7 67.3 2.5 63 2.5c-2.3 0-6.7 0-12.4 0.6C40.2 4.3 23.1 4.5 12.6 3.2C8.5 2.7 4.3 2.5 0 2.5"/><path fill="none" stroke="#000000" stroke-miterlimit="10" d="M0 22.5c6.9 0 13.6 1.3 19.9 3.8c6.3 2.5 16.7 2.5 23-0.1 c9.1-3.7 16.9-3.7 20.1-3.7c6.9 0 13.6 1.3 19.9 3.8c6.3 2.5 16.7 2.5 23-0.1c9.1-3.7 16.9-3.7 20.1-3.7c6.9 0 13.6 1.3 19.9 3.8 c6.3 2.5 16.7 2.5 23-0.1c9.1-3.7 16.9-3.7 20.1-3.7c6.9 0 13.6 1.3 19.9 3.8c6.3 2.5 16.7 2.5 23-0.1c9.1-3.7 16.9-3.7 20.1-3.7 c6.9 0 13.6 1.3 19.9 3.8c6.3 2.5 16.7 2.5 23-0.1c9.1-3.7 16.9-3.7 20.1-3.7c6.9 0 13.6 1.3 19.9 3.8c6.3 2.5 16.7 2.5 23-0.1 c9.1-3.7 16.9-3.7 20.1-3.7c6.9 0 13.6 1.3 19.9 3.8c6.3 2.5 16.7 2.5 23-0.1c9.1-3.7 16.9-3.7 20.1-3.7"/><path fill="none" stroke="#000000" stroke-miterlimit="10" d="M441 37.5c-3.8 0-13.9 0-25.1 6.1c-3.5 1.9-9.4 1.9-12.9 0.1 c-7.6-4-16.1-6.1-25-6.1c-3.8 0-13.9 0-25.1 6.1c-3.5 1.9-9.4 1.9-12.9 0.1c-7.6-4-16.1-6.1-25-6.1c-3.8 0-13.9 0-25.1 6.1 c-3.5 1.9-9.4 1.9-12.9 0.1c-7.6-4-16.1-6.1-25-6.1c-3.8 0-13.9 0-25.1 6.1c-3.5 1.9-9.4 1.9-12.9 0.1c-7.6-4-16.1-6.1-25-6.1 c-3.8 0-13.9 0-25.1 6.1c-3.5 1.9-9.4 1.9-12.9 0.1c-7.6-4-16.1-6.1-25-6.1c-3.8 0-13.9 0-25.1 6.1c-3.5 1.9-9.4 1.9-12.9 0.1 c-7.6-4-16.1-6.1-25-6.1c-3.8 0-13.9 0-25.1 6.1c-3.5 1.9-9.4 1.9-12.9 0.1c-7.6-4-16.1-6.1-25-6.1"/><path fill="none" stroke="#000000" stroke-miterlimit="10" d="M0 27.5c7.7 0 15 1.6 21.8 4.6c5.4 2.4 14.3 2.1 19.7-0.3 c9.7-4.3 18.1-4.3 21.5-4.3c7.7 0 15 1.6 21.8 4.6c5.4 2.4 14.3 2.1 19.7-0.3c9.7-4.3 18.1-4.3 21.5-4.3c7.7 0 15 1.6 21.8 4.6 c5.4 2.4 14.3 2.1 19.7-0.3c9.7-4.3 18.1-4.3 21.5-4.3c7.7 0 15 1.6 21.8 4.6c5.4 2.4 14.3 2.1 19.7-0.3c9.7-4.3 18.1-4.3 21.5-4.3 c7.7 0 15 1.6 21.8 4.6c5.4 2.4 14.3 2.1 19.7-0.3c9.7-4.3 18.1-4.3 21.5-4.3c7.7 0 15 1.6 21.8 4.6c5.4 2.4 14.3 2.1 19.7-0.3 c9.7-4.3 18.1-4.3 21.5-4.3c7.7 0 15 1.6 21.8 4.6c5.4 2.4 14.3 2.1 19.7-0.3c9.7-4.3 18.1-4.3 21.5-4.3"/><path fill="none" stroke="#000000" stroke-miterlimit="10" d="M441 32.5c-3.6 0-12.9 0-23.4 5.2c-4.4 2.2-11.7 2.3-16.1 0.2 c-7.2-3.5-15.2-5.4-23.5-5.4c-3.6 0-12.9 0-23.4 5.2c-4.4 2.2-11.7 2.3-16.1 0.2c-7.2-3.5-15.2-5.4-23.5-5.4c-3.6 0-12.9 0-23.4 5.2 c-4.4 2.2-11.7 2.3-16.1 0.2c-7.2-3.5-15.2-5.4-23.5-5.4c-3.6 0-12.9 0-23.4 5.2c-4.4 2.2-11.7 2.3-16.1 0.2 c-7.2-3.5-15.2-5.4-23.5-5.4c-3.6 0-12.9 0-23.4 5.2c-4.4 2.2-11.7 2.3-16.1 0.2c-7.2-3.5-15.2-5.4-23.5-5.4c-3.6 0-12.9 0-23.4 5.2 c-4.4 2.2-11.7 2.3-16.1 0.2c-7.2-3.5-15.2-5.4-23.5-5.4c-3.6 0-12.9 0-23.4 5.2c-4.4 2.2-11.7 2.3-16.1 0.2 C16.3 34.3 8.3 32.5 0 32.5"/><path fill="none" stroke="#000000" stroke-miterlimit="10" d="M441 97.5c-15.7 0-15.7 43.5-31.5 43.5c-15.8 0-15.8-43.5-31.5-43.5 S362.2 141 346.5 141S330.8 97.5 315 97.5S299.2 141 283.5 141S267.8 97.5 252 97.5S236.2 141 220.5 141S204.8 97.5 189 97.5 S173.2 141 157.5 141S141.8 97.5 126 97.5S110.2 141 94.5 141S78.8 97.5 63 97.5S47.2 141 31.5 141S15.8 97.5 0 97.5"/><path fill="none" stroke="#000000" stroke-miterlimit="10" d="M0 102.5c4.4 0 8.1 10.2 11 18.5c4.3 11.7 9.1 25 20.5 25 s16.2-13.3 20.5-25c3-8.2 6.7-18.5 11-18.5s8.1 10.2 11 18.5c4.3 11.7 9.1 25 20.5 25s16.2-13.3 20.5-25c3-8.2 6.7-18.5 11-18.5 s8.1 10.2 11 18.5c4.3 11.7 9.1 25 20.5 25s16.2-13.3 20.5-25c3-8.2 6.7-18.5 11-18.5s8.1 10.2 11 18.5c4.3 11.7 9.1 25 20.5 25 s16.2-13.3 20.5-25c3-8.2 6.7-18.5 11-18.5s8.1 10.2 11 18.5c4.3 11.7 9.1 25 20.5 25s16.2-13.3 20.5-25c3-8.2 6.7-18.5 11-18.5 s8.1 10.2 11 18.5c4.3 11.7 9.1 25 20.5 25s16.2-13.3 20.5-25c3-8.2 6.7-18.5 11-18.5s8.1 10.2 11 18.5c4.3 11.7 9.1 25 20.5 25 s16.2-13.3 20.5-25c3-8.2 6.7-18.5 11-18.5"/><path fill="none" stroke="#000000" stroke-miterlimit="10" d="M441 210.6c-4.4 0-8.9 0.8-13.1 2.4c-8.4 3-15.4 3-18.4 3 c-6.4 0-12.6-1.1-18.4-3.2c-8.5-3.1-17.8-2.9-26.3 0.2c-8.4 3-15.4 3-18.4 3c-6.4 0-12.6-1.1-18.4-3.2c-8.5-3.1-17.8-2.9-26.3 0.2 c-8.4 3-15.4 3-18.4 3c-6.4 0-12.6-1.1-18.4-3.2c-8.5-3.1-17.8-2.9-26.3 0.2c-8.4 3-15.4 3-18.4 3c-6.4 0-12.6-1.1-18.4-3.2 c-8.5-3.1-17.8-2.9-26.3 0.2c-8.4 3-15.4 3-18.4 3c-6.4 0-12.6-1.1-18.4-3.2c-8.5-3.1-17.8-2.9-26.3 0.2c-8.4 3-15.4 3-18.4 3 c-6.4 0-12.6-1.1-18.4-3.2c-8.5-3.1-17.8-2.9-26.3 0.2c-8.4 3-15.4 3-18.4 3c-6.4 0-12.6-1.1-18.4-3.2c-4.2-1.5-8.7-2.3-13.1-2.2"/><path fill="none" stroke="#000000" stroke-miterlimit="10" d="M441 92.5c-11.4 0-16.2 13.3-20.5 25c-3 8.2-6.7 18.5-11 18.5 s-8.1-10.2-11-18.5c-4.3-11.7-9.1-25-20.5-25s-16.2 13.3-20.5 25c-3 8.2-6.7 18.5-11 18.5s-8.1-10.2-11-18.5 c-4.3-11.7-9.1-25-20.5-25s-16.2 13.3-20.5 25c-3 8.2-6.7 18.5-11 18.5s-8.1-10.2-11-18.5c-4.3-11.7-9.1-25-20.5-25 s-16.2 13.3-20.5 25c-3 8.2-6.7 18.5-11 18.5s-8.1-10.2-11-18.5c-4.3-11.7-9.1-25-20.5-25s-16.2 13.3-20.5 25 c-3 8.2-6.7 18.5-11 18.5s-8.1-10.2-11-18.5c-4.3-11.7-9.1-25-20.5-25s-16.2 13.3-20.5 25c-3 8.2-6.7 18.5-11 18.5 s-8.1-10.2-11-18.5c-4.3-11.7-9.1-25-20.5-25s-16.2 13.3-20.5 25c-3 8.2-6.7 18.5-11 18.5s-8.1-10.2-11-18.5 c-4.3-11.7-9.1-25-20.5-25"/><path fill="none" stroke="#000000" stroke-miterlimit="10" d="M441 122.5c-0.6 0-1.2 0.6-1.6 1.9c0 0 0 0 0 0 c-4.8 13.4-11.5 31.6-29.9 31.6c-18.4 0-25-18.3-29.9-31.6c0 0 0 0 0 0c-0.9-2.5-2.4-2.5-3.3 0c0 0 0 0 0 0 c-4.8 13.4-11.5 31.6-29.9 31.6c-18.4 0-25-18.3-29.9-31.6c0 0 0 0 0 0c-0.9-2.5-2.4-2.5-3.3 0c0 0 0 0 0 0 c-4.8 13.4-11.5 31.6-29.9 31.6c-18.4 0-25-18.3-29.9-31.6c0 0 0 0 0 0c-0.9-2.5-2.4-2.5-3.3 0c0 0 0 0 0 0 c-4.8 13.4-11.5 31.6-29.9 31.6c-18.4 0-25-18.3-29.9-31.6c0 0 0 0 0 0c-0.9-2.5-2.4-2.5-3.3 0c0 0 0 0 0 0 c-4.8 13.4-11.5 31.6-29.9 31.6c-18.4 0-25-18.3-29.9-31.6c0 0 0 0 0 0c-0.9-2.5-2.4-2.5-3.3 0c0 0 0 0 0 0 c-4.8 13.4-11.5 31.6-29.9 31.6c-18.4 0-25-18.3-29.9-31.6c0 0 0 0 0 0c-0.9-2.5-2.4-2.5-3.3 0c0 0 0 0 0 0 C56.5 137.7 49.9 156 31.5 156c-18.4 0-25-18.3-29.9-31.6c0 0 0 0 0 0c-0.4-1.2-1-1.9-1.6-1.9"/><path fill="none" stroke="#000000" stroke-miterlimit="10" d="M0 135.4c0.3 0 0.7 0.3 0.9 0.9C6.2 148.4 14.6 161 31.5 161 s25.3-12.6 30.6-24.7c0.5-1.2 1.3-1.2 1.8 0c5.3 12.1 13.7 24.7 30.6 24.7s25.3-12.6 30.6-24.7c0.5-1.2 1.3-1.2 1.8 0 c5.3 12.1 13.7 24.7 30.6 24.7s25.3-12.6 30.6-24.7c0.5-1.2 1.3-1.2 1.8 0c5.3 12.1 13.7 24.7 30.6 24.7s25.3-12.6 30.6-24.7 c0.5-1.2 1.3-1.2 1.8 0c5.3 12.1 13.7 24.7 30.6 24.7s25.3-12.6 30.6-24.7c0.5-1.2 1.3-1.2 1.8 0c5.3 12.1 13.7 24.7 30.6 24.7 s25.3-12.6 30.6-24.7c0.5-1.2 1.3-1.2 1.8 0c5.3 12.1 13.7 24.7 30.6 24.7s25.3-12.6 30.6-24.7c0.2-0.6 0.6-0.9 0.9-0.9"/><path fill="none" stroke="#000000" stroke-miterlimit="10" d="M441 109.8c-0.7 0-1.3 0.5-1.8 1.5c-1.7 3.6-3.6 8.6-4.5 11.3 c-4.6 12.6-10.3 28.3-25.2 28.3s-20.6-15.7-25.2-28.3c-1-2.7-2.8-7.7-4.5-11.3c-1-2.1-2.6-2.1-3.6 0c-1.7 3.6-3.6 8.6-4.5 11.3 c-4.6 12.6-10.3 28.3-25.2 28.3s-20.6-15.7-25.2-28.3c-1-2.7-2.8-7.7-4.5-11.3c-1-2.1-2.6-2.1-3.6 0c-1.7 3.6-3.6 8.6-4.5 11.3 c-4.6 12.6-10.3 28.3-25.2 28.3s-20.6-15.7-25.2-28.3c-1-2.7-2.8-7.7-4.5-11.3c-1-2.1-2.6-2.1-3.6 0c-1.7 3.6-3.6 8.6-4.5 11.3 c-4.6 12.6-10.3 28.3-25.2 28.3s-20.6-15.7-25.2-28.3c-1-2.7-2.8-7.7-4.5-11.3c-1-2.1-2.6-2.1-3.6 0c-1.7 3.6-3.6 8.6-4.5 11.3 c-4.6 12.6-10.3 28.3-25.2 28.3s-20.6-15.7-25.2-28.3c-1-2.7-2.8-7.7-4.5-11.3c-1-2.1-2.6-2.1-3.6 0c-1.7 3.6-3.6 8.6-4.5 11.3 c-4.6 12.6-10.3 28.3-25.2 28.3s-20.6-15.7-25.2-28.3c-1-2.7-2.8-7.7-4.5-11.3c-1-2.1-2.6-2.1-3.6 0c-1.7 3.6-3.6 8.6-4.5 11.3 C52.1 135.3 46.4 151 31.5 151s-20.6-15.7-25.2-28.3c-1-2.7-2.8-7.7-4.5-11.3c-0.5-1-1.2-1.5-1.8-1.5"/><path fill="none" stroke="#000000" stroke-miterlimit="10" d="M441 82.5c-18.4 0-25 18.3-29.9 31.6c-0.2 0.6-0.4 1.2-0.7 1.9 c-0.5 1.4-1.4 1.4-1.9 0c-0.3-0.7-0.5-1.4-0.7-1.9c-4.8-13.4-11.5-31.6-29.9-31.6c-18.4 0-25 18.3-29.9 31.6 c-0.2 0.6-0.4 1.2-0.7 1.9c-0.5 1.4-1.4 1.4-1.9 0c-0.3-0.7-0.5-1.4-0.7-1.9c-4.8-13.4-11.5-31.6-29.9-31.6 c-18.4 0-25 18.3-29.9 31.6c-0.2 0.6-0.4 1.2-0.7 1.9c-0.5 1.4-1.4 1.4-1.9 0c-0.3-0.7-0.5-1.4-0.7-1.9 c-4.8-13.4-11.5-31.6-29.9-31.6c-18.4 0-25 18.3-29.9 31.6c-0.2 0.6-0.4 1.2-0.7 1.9c-0.5 1.4-1.4 1.4-1.9 0 c-0.3-0.7-0.5-1.4-0.7-1.9c-4.8-13.4-11.5-31.6-29.9-31.6c-18.4 0-25 18.3-29.9 31.6c-0.2 0.6-0.4 1.2-0.7 1.9 c-0.5 1.4-1.4 1.4-1.9 0c-0.3-0.7-0.5-1.4-0.7-1.9c-4.8-13.4-11.5-31.6-29.9-31.6c-18.4 0-25 18.3-29.9 31.6 c-0.2 0.6-0.4 1.2-0.7 1.9c-0.5 1.4-1.4 1.4-1.9 0c-0.3-0.7-0.5-1.4-0.7-1.9C88 100.8 81.4 82.5 63 82.5c-18.4 0-25 18.3-29.9 31.6 c-0.2 0.6-0.4 1.2-0.7 1.9c-0.5 1.4-1.4 1.4-1.9 0c-0.3-0.7-0.5-1.4-0.7-1.9C25 100.8 18.4 82.5 0 82.5"/><path fill="none" stroke="#000000" stroke-miterlimit="10" d="M0 87.5c14.9 0 20.6 15.7 25.2 28.3c1 2.7 2.8 7.7 4.5 11.3 c1 2.1 2.6 2.1 3.6 0c1.7-3.6 3.6-8.6 4.5-11.3c4.6-12.6 10.3-28.3 25.2-28.3s20.6 15.7 25.2 28.3c1 2.7 2.8 7.7 4.5 11.3 c1 2.1 2.6 2.1 3.6 0c1.7-3.6 3.6-8.6 4.5-11.3c4.6-12.6 10.3-28.3 25.2-28.3s20.6 15.7 25.2 28.3c1 2.7 2.8 7.7 4.5 11.3 c1 2.1 2.6 2.1 3.6 0c1.7-3.6 3.6-8.6 4.5-11.3c4.6-12.6 10.3-28.3 25.2-28.3s20.6 15.7 25.2 28.3c1 2.7 2.8 7.7 4.5 11.3 c1 2.1 2.6 2.1 3.6 0c1.7-3.6 3.6-8.6 4.5-11.3c4.6-12.6 10.3-28.3 25.2-28.3s20.6 15.7 25.2 28.3c1 2.7 2.8 7.7 4.5 11.3 c1 2.1 2.6 2.1 3.6 0c1.7-3.6 3.6-8.6 4.5-11.3c4.6-12.6 10.3-28.3 25.2-28.3s20.6 15.7 25.2 28.3c1 2.7 2.8 7.7 4.5 11.3 c1 2.1 2.6 2.1 3.6 0c1.7-3.6 3.6-8.6 4.5-11.3c4.6-12.6 10.3-28.3 25.2-28.3s20.6 15.7 25.2 28.3c1 2.7 2.8 7.7 4.5 11.3 c1 2.1 2.6 2.1 3.6 0c1.7-3.6 3.6-8.6 4.5-11.3c4.6-12.6 10.3-28.3 25.2-28.3"/><path fill="none" stroke="#000000" stroke-miterlimit="10" d="M441 77.5c-16.9 0-25.3 12.6-30.6 24.7c-0.5 1.2-1.3 1.2-1.8 0 c-5.3-12.1-13.7-24.7-30.6-24.7c-16.9 0-25.3 12.6-30.6 24.7c-0.5 1.2-1.3 1.2-1.8 0c-5.3-12.1-13.7-24.7-30.6-24.7 c-16.9 0-25.3 12.6-30.6 24.7c-0.5 1.2-1.3 1.2-1.8 0c-5.3-12.1-13.7-24.7-30.6-24.7c-16.9 0-25.3 12.6-30.6 24.7 c-0.5 1.2-1.3 1.2-1.8 0c-5.3-12.1-13.7-24.7-30.6-24.7c-16.9 0-25.3 12.6-30.6 24.7c-0.5 1.2-1.3 1.2-1.8 0 c-5.3-12.1-13.7-24.7-30.6-24.7c-16.9 0-25.3 12.6-30.6 24.7c-0.5 1.2-1.3 1.2-1.8 0C88.3 90.1 79.9 77.5 63 77.5 c-16.9 0-25.3 12.6-30.6 24.7c-0.5 1.2-1.3 1.2-1.8 0C25.3 90.1 16.9 77.5 0 77.5"/><path fill="none" stroke="#000000" stroke-miterlimit="10" d="M0 146.6c0.3 0 0.6 0.2 0.8 0.6c5.1 8.5 14.4 18.8 30.7 18.8 c5 0 19.1 0 30.6-18.8c0.5-0.8 1.2-0.8 1.7 0c5.1 8.5 14.4 18.8 30.7 18.8c5 0 19.1 0 30.6-18.8c0.5-0.8 1.2-0.8 1.7 0 c5.1 8.5 14.4 18.8 30.7 18.8c5 0 19.1 0 30.6-18.8c0.5-0.8 1.2-0.8 1.7 0c5.1 8.5 14.4 18.8 30.7 18.8c5 0 19.1 0 30.6-18.8 c0.5-0.8 1.2-0.8 1.7 0c5.1 8.5 14.4 18.8 30.7 18.8c5 0 19.1 0 30.6-18.8c0.5-0.8 1.2-0.8 1.7 0c5.1 8.5 14.4 18.8 30.7 18.8 c5 0 19.1 0 30.6-18.8c0.5-0.8 1.2-0.8 1.7 0c5.1 8.5 14.4 18.8 30.7 18.8c5 0 19.1 0 30.6-18.8c0.3-0.4 0.6-0.6 0.9-0.6"/><path fill="none" stroke="#000000" stroke-miterlimit="10" d="M441 193.6c-2.5 0-5 0.6-7.3 1.8c-10.9 5.6-20.5 5.6-24.2 5.6 c-8.5 0-16.7-1.9-24.1-5.7c-4.6-2.3-10.1-2.3-14.7 0.1c-10.9 5.6-20.5 5.6-24.2 5.6c-8.5 0-16.7-1.9-24.1-5.7 c-4.6-2.3-10.1-2.3-14.7 0.1c-10.9 5.6-20.5 5.6-24.2 5.6c-8.5 0-16.7-1.9-24.1-5.7c-4.6-2.3-10.1-2.3-14.7 0.1 c-10.9 5.6-20.5 5.6-24.2 5.6c-8.5 0-16.7-1.9-24.1-5.7c-4.6-2.3-10.1-2.3-14.7 0.1c-10.9 5.6-20.5 5.6-24.2 5.6 c-8.5 0-16.7-1.9-24.1-5.7c-4.6-2.3-10.1-2.3-14.7 0.1c-10.9 5.6-20.5 5.6-24.2 5.6c-8.5 0-16.7-1.9-24.1-5.7 c-4.6-2.3-10.1-2.3-14.7 0.1C44.8 201 35.2 201 31.5 201c-8.5 0-16.7-1.9-24.1-5.7c-2.3-1.2-4.9-1.8-7.4-1.7"/><path fill="none" stroke="#000000" stroke-miterlimit="10" d="M0 199.3c3.2 0 6.5 0.7 9.5 2.1c6.8 3.1 14.3 4.7 22 4.7 c3.5 0 12.3 0 22.5-4.8c5.8-2.7 12.6-2.6 18.5 0.1c6.8 3.1 14.3 4.7 22 4.7c3.5 0 12.3 0 22.5-4.8c5.8-2.7 12.6-2.6 18.5 0.1 c6.8 3.1 14.3 4.7 22 4.7c3.5 0 12.3 0 22.5-4.8c5.8-2.7 12.6-2.6 18.5 0.1c6.8 3.1 14.3 4.7 22 4.7c3.5 0 12.3 0 22.5-4.8 c5.8-2.7 12.6-2.6 18.5 0.1c6.8 3.1 14.3 4.7 22 4.7c3.5 0 12.3 0 22.5-4.8c5.8-2.7 12.6-2.6 18.5 0.1c6.8 3.1 14.3 4.7 22 4.7 c3.5 0 12.3 0 22.5-4.8c5.8-2.7 12.6-2.6 18.5 0.1c6.8 3.1 14.3 4.7 22 4.7c3.5 0 12.3 0 22.5-4.8c2.9-1.3 5.9-2 9-2"/><path fill="none" stroke="#000000" stroke-miterlimit="10" d="M441 188.1c-2 0-4 0.5-5.8 1.5c-11.5 6.4-21.9 6.4-25.7 6.4 c-9.1 0-17.8-2.2-25.6-6.4c-3.7-2-8.1-2-11.7 0c-11.5 6.4-21.9 6.4-25.7 6.4c-9.1 0-17.8-2.2-25.6-6.4c-3.7-2-8.1-2-11.7 0 c-11.5 6.4-21.9 6.4-25.7 6.4c-9.1 0-17.8-2.2-25.6-6.4c-3.7-2-8.1-2-11.7 0c-11.5 6.4-21.9 6.4-25.7 6.4c-9.1 0-17.8-2.2-25.6-6.4 c-3.7-2-8.1-2-11.7 0c-11.5 6.4-21.9 6.4-25.7 6.4c-9.1 0-17.8-2.2-25.6-6.4c-3.7-2-8.1-2-11.7 0c-11.5 6.4-21.9 6.4-25.7 6.4 c-9.1 0-17.8-2.2-25.6-6.4c-3.7-2-8.1-2-11.7 0C45.8 196 35.3 196 31.5 196c-9.1 0-17.8-2.2-25.6-6.4c-1.9-1-3.9-1.5-5.9-1.5"/><path fill="none" stroke="#000000" stroke-miterlimit="10" d="M0 204.8c3.8 0 7.6 0.7 11.1 2.2c6.4 2.6 13.3 4 20.4 4 c3.3 0 11.3 0 20.8-4c7-3 14.8-2.9 21.9 0c6.4 2.6 13.3 4 20.4 4c3.3 0 11.3 0 20.8-4c7-3 14.8-2.9 21.9 0c6.4 2.6 13.3 4 20.4 4 c3.3 0 11.3 0 20.8-4c7-3 14.8-2.9 21.9 0c6.4 2.6 13.3 4 20.4 4c3.3 0 11.3 0 20.8-4c7-3 14.8-2.9 21.9 0c6.4 2.6 13.3 4 20.4 4 c3.3 0 11.3 0 20.8-4c7-3 14.8-2.9 21.9 0c6.4 2.6 13.3 4 20.4 4c3.3 0 11.3 0 20.8-4c7-3 14.8-2.9 21.9 0c6.4 2.6 13.3 4 20.4 4 c3.3 0 11.3 0 20.8-4c3.4-1.5 7.1-2.2 10.7-2.2"/><path fill="none" stroke="#000000" stroke-miterlimit="10" d="M0 155.4c0.3 0 0.5 0.1 0.7 0.4c8 10 18.5 15.2 30.8 15.2 c4.8 0 18.5 0 30.7-15.2c0.4-0.5 1.1-0.5 1.6 0c8 10 18.5 15.2 30.8 15.2c4.8 0 18.5 0 30.7-15.2c0.4-0.5 1.1-0.5 1.6 0 c8 10 18.5 15.2 30.8 15.2c4.8 0 18.5 0 30.7-15.2c0.4-0.5 1.1-0.5 1.6 0c8 10 18.5 15.2 30.8 15.2c4.8 0 18.5 0 30.7-15.2 c0.4-0.5 1.1-0.5 1.6 0c8 10 18.5 15.2 30.8 15.2c4.8 0 18.5 0 30.7-15.2c0.4-0.5 1.1-0.5 1.6 0c8 10 18.5 15.2 30.8 15.2 c4.8 0 18.5 0 30.7-15.2c0.4-0.5 1.1-0.5 1.6 0c8 10 18.5 15.2 30.8 15.2c4.8 0 18.5 0 30.7-15.2c0.2-0.3 0.5-0.4 0.8-0.4"/><path fill="none" stroke="#000000" stroke-miterlimit="10" d="M441 182.9c-1.8 0-3.7 0.5-5 1.3c-11.8 6.8-22.5 6.8-26.5 6.8 c-9.5 0-18.5-2.4-26.5-7c-2.8-1.6-7.3-1.4-10 0.2c-11.8 6.8-22.5 6.8-26.5 6.8c-9.5 0-18.5-2.4-26.5-7c-2.8-1.6-7.3-1.4-10 0.2 c-11.8 6.8-22.5 6.8-26.5 6.8c-9.5 0-18.5-2.4-26.5-7c-2.8-1.6-7.3-1.4-10 0.2c-11.8 6.8-22.5 6.8-26.5 6.8c-9.5 0-18.5-2.4-26.5-7 c-2.8-1.6-7.3-1.4-10 0.2c-11.8 6.8-22.5 6.8-26.5 6.8c-9.5 0-18.5-2.4-26.5-7c-2.8-1.6-7.3-1.4-10 0.2c-11.8 6.8-22.5 6.8-26.5 6.8 c-9.5 0-18.5-2.4-26.5-7c-2.8-1.6-7.3-1.4-10 0.2C46.2 191 35.4 191 31.5 191C22 191 13 188.6 5 184c-1.4-0.8-3.2-1.1-5-1.1"/><path fill="none" stroke="#000000" stroke-miterlimit="10" d="M441 163.4c-0.5 0-1 0.2-1.4 0.5C427.2 176 414.1 176 409.5 176 c-11.5 0-21.8-4.2-30.2-12.1c-0.7-0.7-2-0.7-2.7 0C364.2 176 351.1 176 346.5 176c-11.5 0-21.8-4.2-30.2-12.1c-0.7-0.7-2-0.7-2.7 0 C301.2 176 288.1 176 283.5 176c-11.5 0-21.8-4.2-30.2-12.1c-0.7-0.7-2-0.7-2.7 0C238.2 176 225.1 176 220.5 176 c-11.5 0-21.8-4.2-30.2-12.1c-0.7-0.7-2-0.7-2.7 0C175.2 176 162.1 176 157.5 176c-11.5 0-21.8-4.2-30.2-12.1c-0.7-0.7-2-0.7-2.7 0 C112.2 176 99.1 176 94.5 176c-11.5 0-21.8-4.2-30.2-12.1c-0.7-0.7-2-0.7-2.7 0C49.2 176 36.1 176 31.5 176 c-11.5 0-21.8-4.2-30.2-12.1c-0.4-0.3-0.8-0.5-1.3-0.5"/><path fill="none" stroke="#000000" stroke-miterlimit="10" d="M0 170.6c0.9 0 1.7 0.3 2.4 0.8c8.4 6.3 18.3 9.6 29.1 9.6 c4.3 0 16.6 0 29-9.6c1.4-1.1 3.4-1.1 4.9 0c8.4 6.3 18.3 9.6 29.1 9.6c4.3 0 16.6 0 29-9.6c1.4-1.1 3.4-1.1 4.9 0 c8.4 6.3 18.3 9.6 29.1 9.6c4.3 0 16.6 0 29-9.6c1.4-1.1 3.4-1.1 4.9 0c8.4 6.3 18.3 9.6 29.1 9.6c4.3 0 16.6 0 29-9.6 c1.4-1.1 3.4-1.1 4.9 0c8.4 6.3 18.3 9.6 29.1 9.6c4.3 0 16.6 0 29-9.6c1.4-1.1 3.4-1.1 4.9 0c8.4 6.3 18.3 9.6 29.1 9.6 c4.3 0 16.6 0 29-9.6c1.4-1.1 3.4-1.1 4.9 0c8.4 6.3 18.3 9.6 29.1 9.6c4.3 0 16.6 0 29-9.6c0.7-0.6 1.6-0.8 2.5-0.9"/><path fill="none" stroke="#000000" stroke-miterlimit="10" d="M441 177.4c-1.4 0-2.8 0.4-4 1.1c-12.1 7.4-23.5 7.4-27.5 7.4 c-9.8 0-19.1-2.5-27.3-7.4c-2.5-1.5-5.7-1.6-8.3 0c-12.1 7.4-23.5 7.4-27.5 7.4c-9.8 0-19.1-2.5-27.3-7.4c-2.5-1.5-5.7-1.6-8.3 0 c-12.1 7.4-23.5 7.4-27.5 7.4c-9.8 0-19.1-2.5-27.3-7.4c-2.5-1.5-5.7-1.6-8.3 0c-12.1 7.4-23.5 7.4-27.5 7.4 c-9.8 0-19.1-2.5-27.3-7.4c-2.5-1.5-5.7-1.6-8.3 0c-12.1 7.4-23.5 7.4-27.5 7.4c-9.8 0-19.1-2.5-27.3-7.4c-2.5-1.5-5.7-1.6-8.3 0 c-12.1 7.4-23.5 7.4-27.5 7.4c-9.8 0-19.1-2.5-27.3-7.4c-2.5-1.5-5.7-1.6-8.3 0C46.8 186 35.5 186 31.5 186 c-9.8 0-19.1-2.5-27.3-7.4c-1.3-0.8-2.8-1.2-4.2-1.1"/></svg>